<svg version="1.1" id="Layer_1" xmlns="http://www.w3.org/2000/svg" xmlns:xlink="http://www.w3.org/1999/xlink" x="0" y="0" viewBox="0 0 640 640" xml:space="preserve">
  <style>
    .st1{fill:#fdcd9a}.st3{fill:#382200}.st5{fill:#00596e}.st9{fill-rule:evenodd;clip-rule:evenodd;fill:#dfdfde}.st12{opacity:.68}
  </style>
  <linearGradient id="SVGID_1_" gradientUnits="userSpaceOnUse" x1="76.7" y1="658.6" x2="606.4" y2="475.2" gradientTransform="translate(0 -256)">
    <stop offset="0" stop-color="#3690bd"/>
    <stop offset="1" stop-color="#ffb600"/>
  </linearGradient>
  <path d="M48.4 287c65.2-266 454.7-322.7 456-191.2 1.2 126.7 87.7 131.5 98.7 230.4 13.3 119.5-104.4 234.5-241 255.7C113.7 620.3 20.5 400.8 48.4 287z" fill-rule="evenodd" clip-rule="evenodd" fill="url(#SVGID_1_)"/>
  <path class="st1" d="M209.4 390s.2 14.8 9.9 22.4c0 0-4.4-26.6 21.4-26.7 26.3-.1-18.6-9.6-31.3 4.3z"/>
  <path class="st1" d="M290.9 204.7s-7.6 38 0 48.9c4.1 6 6 13.3 6.9 18.7a17 17 0 0022.6 13.5 17 17 0 0010.7-12.2c2.3-9.8 7.1-28.2 12.6-36 2.4-3.3 3.3-7.5 3-11.5a48.8 48.8 0 00-4.1-17.4c-4.6-8.2-6.4-5.9-9.2-17.2-2.7-11.2-48.3-.3-48.1 0 0 .4 6.8 6.2 5.6 13.2z"/>
  <path d="M288.7 196.2c-2-4.4 19 30.5 38.2 4.2 4.3-5.9 5.4-7.3 5.4-11.8v1l-43.6 6.6z" fill="#e8b47f"/>
  <path class="st1" d="M290 196.9c-8.7-8.6-16-24.5-10.3-53.6l.9-3.3c2-6.2 9.4-26 24.8-32.9 18.4-8.2 32.4 29.3 34.1 39.4 1.3 7.7 3.2 34.2-11.8 49.9a26.2 26.2 0 01-37.7.5z"/>
  <path class="st3" d="M288.7 195.8s-26.8-55.5 12.1-78.8c4-2.4 8.8-3.4 13.5-2.5 3.3.7 6.9 2.3 9.8 5.9l17.3-16.3s-23.5-24.5-57-5.2c-19.8 11.4-25.9 34.8-23.8 61.6a179 179 0 007.3 37 688 688 0 0120.8-1.7z"/>
  <path class="st3" d="M325.7 120.9l16.7-16.5s12.4 3.5 14.3 28.4c2.8 36-6.1 56.9-6.1 56.9l-17.4 1.2c.1-.2 20.2-39.5-7.5-70z"/>
  <g opacity=".7">
    <path class="st5" d="M389.3 389.6A765.3 765.3 0 01391 329a815 815 0 016-60.3l2.2-15c.9-5 1.7-10 2.7-14.9.9-5 2-9.9 3-14.8 1.2-4.9 2.2-9.8 3.6-14.7 2.5-9.8 5.4-19.5 8.8-29s7.3-18.8 12-27.8c-4.6 9-8.4 18.3-11.7 27.9-3.4 9.5-6.1 19.2-8.6 29-1.3 4.9-2.3 9.8-3.4 14.7a772.6 772.6 0 00-5.4 29.7l-2.1 15a810.8 810.8 0 00-6.7 90.4c-.2 10.1-.3 20.2-.1 30.2l-2 .2z"/>
    <path class="st5" d="M392 371.8s9 2.9 16.6-.8c7.6-3.7 10.9-12.5 10.9-12.5s-9-2.9-16.6.8a25.2 25.2 0 00-10.9 12.5z"/>
    <path class="st5" d="M365.6 351.1s9.4-.1 15.6 5.6 6.7 15.2 6.7 15.2-9.4.1-15.6-5.6-6.7-15.2-6.7-15.2z"/>
    <path class="st5" d="M392.7 351.1s9 2.9 16.6-.8c7.6-3.7 10.9-12.5 10.9-12.5s-9-2.9-16.6.8a24.8 24.8 0 00-10.9 12.5z"/>
    <path class="st5" d="M366.3 330.4s9.4-.1 15.6 5.6 6.7 15.2 6.7 15.2-9.4.1-15.6-5.6a25 25 0 01-6.7-15.2z"/>
    <path class="st5" d="M393.4 330.3s9 2.9 16.6-.8c7.6-3.7 10.9-12.5 10.9-12.5s-9-2.9-16.6.8a24.8 24.8 0 00-10.9 12.5z"/>
    <path class="st5" d="M367 309.6s9.4-.1 15.6 5.6 6.7 15.2 6.7 15.2-9.4.1-15.6-5.6c-6.1-5.8-6.7-15.2-6.7-15.2z"/>
    <path class="st5" d="M395.3 308.5s8.4 2.7 15.5-.7c7.1-3.4 10.2-11.7 10.2-11.7s-8.4-2.7-15.5.7a22.8 22.8 0 00-10.2 11.7z"/>
    <path class="st5" d="M370.6 289.2s8.8-.1 14.6 5.3 6.3 14.2 6.3 14.2-8.8.1-14.6-5.3c-5.8-5.4-6.3-14.2-6.3-14.2z"/>
    <path class="st5" d="M397.1 286.3s7.5 2.4 13.8-.7 9.1-10.5 9.1-10.5-7.5-2.4-13.8.7c-6.3 3.1-9.1 10.5-9.1 10.5z"/>
    <path class="st5" d="M375.1 269s7.9-.1 13 4.7 5.6 12.7 5.6 12.7-7.9.1-13-4.7c-5.2-4.8-5.6-12.7-5.6-12.7z"/>
    <path class="st5" d="M400 263.7s6.5 2.1 11.9-.6c5.4-2.6 7.8-9 7.8-9s-6.5-2.1-11.9.6-7.8 9-7.8 9z"/>
    <path class="st5" d="M381 248.8s6.8-.1 11.2 4c4.4 4.1 4.8 10.9 4.8 10.9s-6.8.1-11.2-4c-4.4-4.1-4.8-10.9-4.8-10.9z"/>
    <path class="st5" d="M402.5 244.8s5.9 1.9 10.8-.5 7.1-8.2 7.1-8.2-5.9-1.9-10.8.5c-5 2.5-7.1 8.2-7.1 8.2z"/>
    <path class="st5" d="M385.2 231.3s6.2-.1 10.2 3.7 4.4 9.9 4.4 9.9-6.2.1-10.2-3.7c-4-3.7-4.4-9.9-4.4-9.9z"/>
    <g>
      <path class="st5" d="M406.7 227.1s6.5 2.1 11.9-.6c5.4-2.6 7.8-9 7.8-9s-6.5-2.1-11.9.6c-5.5 2.6-7.8 9-7.8 9z"/>
      <path class="st5" d="M387.7 212.3s6.8-.1 11.2 4c4.4 4.1 4.8 10.9 4.8 10.9s-6.8.1-11.2-4-4.8-10.9-4.8-10.9z"/>
    </g>
    <g>
      <path class="st5" d="M410.8 211s5.9 1.9 10.8-.5 7.1-8.2 7.1-8.2-5.9-1.9-10.8.5c-5 2.4-7.1 8.2-7.1 8.2z"/>
      <path class="st5" d="M393.6 197.5s6.2-.1 10.2 3.7c4 3.7 4.4 9.9 4.4 9.9s-6.2.1-10.2-3.7-4.4-9.9-4.4-9.9z"/>
    </g>
    <g>
      <path class="st5" d="M415.2 192s5.5 1.8 10.2-.5 6.7-7.7 6.7-7.7-5.5-1.8-10.2.5-6.7 7.7-6.7 7.7z"/>
      <path class="st5" d="M399 179.3s5.8-.1 9.6 3.4 4.1 9.3 4.1 9.3-5.8.1-9.6-3.4-4.1-9.3-4.1-9.3z"/>
    </g>
    <g>
      <path class="st5" d="M419 179.2s5.5 1.8 10.2-.5c4.6-2.3 6.7-7.7 6.7-7.7s-5.5-1.8-10.2.5-6.7 7.7-6.7 7.7z"/>
      <path class="st5" d="M402.8 166.5s5.8-.1 9.6 3.4 4.1 9.3 4.1 9.3-5.8.1-9.6-3.4c-3.7-3.5-4.1-9.3-4.1-9.3z"/>
    </g>
    <g>
      <path class="st5" d="M425.3 165.6s5.5 1.8 10.2-.5c4.6-2.3 6.7-7.7 6.7-7.7s-5.5-1.8-10.2.5a15.4 15.4 0 00-6.7 7.7z"/>
      <path class="st5" d="M409.1 152.9s5.8-.1 9.6 3.4 4.1 9.3 4.1 9.3-5.8.1-9.6-3.4-4.1-9.3-4.1-9.3z"/>
    </g>
    <g>
      <path class="st5" d="M430.1 153.3s4.4 1.4 8-.4c3.7-1.8 5.3-6.1 5.3-6.1s-4.4-1.4-8 .4-5.3 6.1-5.3 6.1z"/>
      <path class="st5" d="M417.3 143.3s4.6-.1 7.6 2.7 3.3 7.3 3.3 7.3-4.6.1-7.6-2.7c-3-2.8-3.3-7.3-3.3-7.3z"/>
    </g>
  </g>
  <path d="M290.9 204.7s-30 25.5-55.1 40a40.1 40.1 0 00-19.5 27.5 245.3 245.3 0 00-2.3 54.4v.6a124 124 0 01-10.3 40 24.8 24.8 0 00-.8 23.1 4.4 4.4 0 006.8 1.4 39.8 39.8 0 0135.5-8.2l1 .1 162.5-3 1.5.2c2.4.9 8.4 4.4 9.4 18 .6 8.5 3.1 7.3 5.3 4a21.5 21.5 0 003.3-15.6c-3.5-22.4-14.3-94.1-13.6-117.7.8-25.9-29.7-41.4-32.2-42.6l-.3-.1c-2.6-1-39.7-15.9-44.7-24.9 0 0 13.4 23.4-1.7 53-12.9 25.2 6.4 95.5 12.5 115.9a4.4 4.4 0 01-4.2 5.6h-47.7a4.3 4.3 0 01-4.2-5.4c4.3-18.5 18.2-78.5 1.8-112.1a53.6 53.6 0 01-4.3-10.6 99 99 0 011.3-43.6z" fill="#ffb600"/>
  <path d="M312.4 547.8C225 564.7 172.6 482 125.3 440.9c-23.1-20-8.6-80 41.9-57 25.9 17.3 59.5 34.6 85.4 51.8h137.9c23.3-17.2 45.7-39.2 73.9-45.6 37.8-8.5 65.9 34 42 59.7-30.9 33.2-100.7 103.7-194 98z" fill-rule="evenodd" clip-rule="evenodd" fill="#00596e"/>
  <path d="M424.7 422.7c-20.3 12.6-30 31.2-50.1 46.9a510.5 510.5 0 01-73.7 44.6c-6.5 1.9-15.3 9.6-21.8 11.5-.8 10 .6 10.3-.2 20.3a63.6 63.6 0 0045.7-11.6 4395.4 4395.4 0 00136-61.3c14.6-6.8 25.2-21.8 16.3-38.9-10.7-20.8-35.8-21.7-52.2-11.5z" fill-rule="evenodd" clip-rule="evenodd" fill="#ecb781"/>
  <path class="st9" d="M278.2 549.9c-21.1.1-42.3-.6-63.4.4-19.5.9-25.1-51.4 9.4-40.9 21.3 6.5 36.1 13.8 56.1 14.4 9.2-.4 14.2 27.1-2.1 26.1z"/>
  <path d="M188.1 407.7c16.9 12.2 33.6 29.7 51.9 45.5 26.6 22.9 54.2 44.8 76.7 57.8a35.4 35.4 0 0023.8 5.9c.4 0-3.3 0 3.9-.3 4.7-.2 9.6 7.3 11.6 11.5 2.1 4.5 3.7 3.8 5.7 8.3 3.3 7-14.3 10.2-14.7 10.1-8.7-1.1-19.8-.1-27-5.1-1.6-1.1-4.8-.8-6.4-2a46.6 46.6 0 00-6.8-4c-52.9-26.2-97.7-45.1-156.4-81.4-6.9-4.3-17-27.3-2.3-41.6 12.6-12.1 28-13.3 40-4.7z" fill-rule="evenodd" clip-rule="evenodd" fill="#fccb98"/>
  <path class="st9" d="M335.1 517.7c14.7-3.5 30.9 0 44.7-6.3 40-18.3 59.9 42.3 10.2 38.1-18.1-1.5-36.4-1.9-54.6-2.9-6.6-10-7.7-19.7-.3-28.9z"/>
  <linearGradient id="SVGID_2_" gradientUnits="userSpaceOnUse" x1="317.5" y1="636.6" x2="317.5" y2="740.6" gradientTransform="translate(0 -256)">
    <stop offset="0" stop-color="#dfdfde"/>
    <stop offset="1" stop-color="#9c9f97"/>
  </linearGradient>
  <path d="M217.5 397.6c2.6-9 10.3-15 18.9-15.1l169.3-1.9s17-1.9 13.7 27.4l-1.8 49.5s.3 26-20.4 26.7c-23.4.8-166.1.1-166.8.2-2.5.4-10.7-.7-13.3-30.9-2.4-26.8-2.9-44.6.4-55.9z" fill="url(#SVGID_2_)"/>
  <g class="st12">
    <path class="st5" d="M443.6 397.2a743.3 743.3 0 0115-58.7c5.7-19.4 12-38.6 19.1-57.5l5.5-14.1a417.5 417.5 0 0112.1-27.8l6.7-13.6a297 297 0 0115-26.3c5.4-8.5 11.3-16.7 17.8-24.4-6.4 7.8-12.2 16-17.6 24.6a324.2 324.2 0 00-14.8 26.4c-2.3 4.5-4.4 9.1-6.6 13.6-2.1 4.6-4.2 9.2-6.1 13.8l-5.8 14-5.4 14.1a770.3 770.3 0 00-26.4 86.7c-2.4 9.8-4.7 19.6-6.7 29.5l-1.8-.3z"/>
    <path class="st5" d="M450.1 380.5s8.1 4.8 16.3 2.9c8.2-1.9 13.4-9.8 13.4-9.8s-8.1-4.8-16.3-2.9c-8.3 1.9-13.4 9.8-13.4 9.8z"/>
    <path class="st5" d="M428.9 354.5s9.2 2 14 8.9c4.7 7 3.2 16.3 3.2 16.3s-9.2-2-14-8.9c-4.8-7-3.2-16.3-3.2-16.3z"/>
    <path class="st5" d="M455.4 360.4s8.1 4.8 16.3 2.9c8.2-1.9 13.4-9.8 13.4-9.8s-8.1-4.8-16.3-2.9c-8.3 1.9-13.4 9.8-13.4 9.8z"/>
    <path class="st5" d="M434.2 334.4s9.2 2 14 8.9c4.7 7 3.2 16.3 3.2 16.3s-9.2-2-14-8.9c-4.8-7-3.2-16.3-3.2-16.3z"/>
    <path class="st5" d="M460.7 340.3s8.1 4.8 16.3 2.9c8.2-1.9 13.4-9.8 13.4-9.8s-8.1-4.8-16.3-2.9a24.7 24.7 0 00-13.4 9.8z"/>
    <path class="st5" d="M439.5 314.3s9.2 2 14 8.9c4.7 7 3.2 16.3 3.2 16.3s-9.2-2-14-8.9c-4.8-7-3.2-16.3-3.2-16.3z"/>
    <path class="st5" d="M467.3 319.4s7.6 4.5 15.3 2.7c7.7-1.8 12.5-9.2 12.5-9.2s-7.6-4.5-15.3-2.7c-7.7 1.8-12.5 9.2-12.5 9.2z"/>
    <path class="st5" d="M447.4 295.1s8.6 1.8 13.1 8.3c4.4 6.5 3 15.2 3 15.2s-8.6-1.8-13.1-8.3c-4.4-6.5-3-15.2-3-15.2z"/>
    <path class="st5" d="M474 298.2s6.8 4 13.6 2.4 11.1-8.2 11.1-8.2-6.8-4-13.6-2.4-11.1 8.2-11.1 8.2z"/>
    <path class="st5" d="M456.3 276.5s7.7 1.6 11.7 7.4 2.7 13.6 2.7 13.6-7.7-1.6-11.7-7.4c-4-5.8-2.7-13.6-2.7-13.6z"/>
    <path class="st5" d="M481.8 276.8s5.8 3.4 11.7 2.1c5.9-1.4 9.6-7.1 9.6-7.1s-5.8-3.4-11.7-2.1-9.6 7.1-9.6 7.1z"/>
    <path class="st5" d="M466.5 258.1s6.6 1.4 10 6.4 2.3 11.7 2.3 11.7-6.6-1.4-10-6.4c-3.4-5-2.3-11.7-2.3-11.7z"/>
    <path class="st5" d="M488.3 258.9s5.3 3.1 10.7 1.9c5.4-1.3 8.7-6.4 8.7-6.4s-5.3-3.1-10.7-1.9c-5.3 1.3-8.7 6.4-8.7 6.4z"/>
    <path class="st5" d="M474.5 242s6 1.3 9.1 5.8 2.1 10.6 2.1 10.6-6-1.3-9.1-5.8c-3.1-4.5-2.1-10.6-2.1-10.6z"/>
    <g>
      <path class="st5" d="M496.4 242.6s5.8 3.4 11.7 2.1c5.9-1.4 9.6-7.1 9.6-7.1s-5.8-3.4-11.7-2.1-9.6 7.1-9.6 7.1z"/>
      <path class="st5" d="M481.1 223.9s6.6 1.4 10 6.4 2.3 11.7 2.3 11.7-6.6-1.4-10-6.4c-3.4-5-2.3-11.7-2.3-11.7z"/>
    </g>
    <g>
      <path class="st5" d="M503.9 227.7s5.3 3.1 10.7 1.9c5.4-1.3 8.7-6.4 8.7-6.4s-5.3-3.1-10.7-1.9-8.7 6.4-8.7 6.4z"/>
      <path class="st5" d="M490.1 210.8s6 1.3 9.1 5.8 2.1 10.6 2.1 10.6-6-1.3-9.1-5.8-2.1-10.6-2.1-10.6z"/>
    </g>
    <g>
      <path class="st5" d="M512.4 210.2s5 2.9 10 1.8c5-1.2 8.2-6 8.2-6s-5-2.9-10-1.8c-5 1.1-8.2 6-8.2 6z"/>
      <path class="st5" d="M499.4 194.2s5.7 1.2 8.6 5.5 2 10 2 10-5.7-1.2-8.6-5.5c-2.9-4.2-2-10-2-10z"/>
    </g>
    <g>
      <path class="st5" d="M519 198.6s5 2.9 10 1.8c5-1.2 8.2-6 8.2-6s-5-2.9-10-1.8c-5.1 1.1-8.2 6-8.2 6z"/>
      <path class="st5" d="M506 182.6s5.7 1.2 8.6 5.5c2.9 4.3 2 10 2 10s-5.7-1.2-8.6-5.5c-3-4.2-2-10-2-10z"/>
    </g>
    <g>
      <path class="st5" d="M528.1 186.7s5 2.9 10 1.8 8.2-6 8.2-6-5-2.9-10-1.8-8.2 6-8.2 6z"/>
      <path class="st5" d="M515.1 170.8s5.7 1.2 8.6 5.5c2.9 4.3 2 10 2 10s-5.7-1.2-8.6-5.5c-3-4.3-2-10-2-10z"/>
    </g>
    <g>
      <path class="st5" d="M535.5 175.8s3.9 2.3 7.9 1.4c4-.9 6.5-4.8 6.5-4.8s-3.9-2.3-7.9-1.4-6.5 4.8-6.5 4.8z"/>
      <path class="st5" d="M525.2 163.2s4.5 1 6.8 4.3c2.3 3.4 1.6 7.9 1.6 7.9s-4.5-1-6.8-4.3c-2.3-3.4-1.6-7.9-1.6-7.9z"/>
    </g>
  </g>
  <g class="st12">
    <path class="st5" d="M182.5 393.6a740.1 740.1 0 00-14.5-58.7 770.3 770.3 0 00-18.6-57.5l-5.4-14.1c-1.9-4.7-3.7-9.4-5.8-14-1.9-4.7-4-9.2-6.1-13.8-2.2-4.6-4.3-9.1-6.6-13.6a296.8 296.8 0 00-32.4-51c6.5 7.7 12.4 15.9 17.8 24.4a297 297 0 0115 26.3c2.4 4.5 4.5 9 6.7 13.6 2.1 4.6 4.3 9.2 6.2 13.8 2.1 4.6 3.9 9.3 5.9 14l5.5 14.1a774.2 774.2 0 0127.1 86.7c2.5 9.8 4.9 19.6 7 29.5l-1.8.3z"/>
    <path class="st5" d="M177.9 376.5s-8.1 4.8-16.3 2.9-13.4-9.8-13.4-9.8 8.1-4.8 16.3-2.9 13.4 9.8 13.4 9.8z"/>
    <path class="st5" d="M199.1 350.5s-9.2 2-14 8.9c-4.7 7-3.2 16.3-3.2 16.3s9.2-2 14-8.9c4.8-7 3.2-16.3 3.2-16.3z"/>
    <path class="st5" d="M172.6 356.4s-8.1 4.8-16.3 2.9-13.4-9.8-13.4-9.8 8.1-4.8 16.3-2.9c8.2 1.9 13.4 9.8 13.4 9.8z"/>
    <path class="st5" d="M193.8 330.4s-9.2 2-14 8.9-3.2 16.3-3.2 16.3 9.2-2 14-8.9 3.2-16.3 3.2-16.3z"/>
    <path class="st5" d="M167.3 336.3s-8.1 4.8-16.3 2.9-13.4-9.8-13.4-9.8 8.1-4.8 16.3-2.9 13.4 9.8 13.4 9.8z"/>
    <path class="st5" d="M188.5 310.3s-9.2 2-14 8.9c-4.7 7-3.2 16.3-3.2 16.3s9.2-2 14-8.9c4.7-7 3.2-16.3 3.2-16.3z"/>
    <path class="st5" d="M160.7 315.4s-7.6 4.5-15.3 2.7-12.5-9.2-12.5-9.2 7.6-4.5 15.3-2.7c7.7 1.8 12.5 9.2 12.5 9.2z"/>
    <path class="st5" d="M180.6 291.1s-8.6 1.8-13.1 8.3c-4.4 6.5-3 15.2-3 15.2s8.6-1.8 13.1-8.3c4.4-6.5 3-15.2 3-15.2z"/>
    <path class="st5" d="M154 294.2s-6.8 4-13.6 2.4-11.1-8.2-11.1-8.2 6.8-4 13.6-2.4 11.1 8.2 11.1 8.2z"/>
    <path class="st5" d="M171.7 272.5s-7.7 1.6-11.7 7.4-2.7 13.6-2.7 13.6 7.7-1.6 11.7-7.4c4-5.8 2.7-13.6 2.7-13.6z"/>
    <path class="st5" d="M146.2 272.8s-5.8 3.4-11.7 2.1-9.6-7.1-9.6-7.1 5.8-3.4 11.7-2.1 9.6 7.1 9.6 7.1z"/>
    <path class="st5" d="M161.5 254.1s-6.6 1.4-10 6.4-2.3 11.7-2.3 11.7 6.6-1.4 10-6.4c3.4-5 2.3-11.7 2.3-11.7z"/>
    <path class="st5" d="M139.7 254.9s-5.3 3.1-10.7 1.9-8.7-6.4-8.7-6.4 5.3-3.1 10.7-1.9 8.7 6.4 8.7 6.4z"/>
    <path class="st5" d="M153.5 238s-6 1.3-9.1 5.8-2.1 10.6-2.1 10.6 6-1.3 9.1-5.8c3.1-4.6 2.1-10.6 2.1-10.6z"/>
    <g>
      <path class="st5" d="M131.6 238.6s-5.8 3.4-11.7 2.1-9.6-7.1-9.6-7.1 5.8-3.4 11.7-2.1 9.6 7.1 9.6 7.1z"/>
      <path class="st5" d="M146.9 219.9s-6.6 1.4-10 6.4-2.3 11.7-2.3 11.7 6.6-1.4 10-6.4c3.4-5 2.3-11.7 2.3-11.7z"/>
    </g>
    <g>
      <path class="st5" d="M124.1 223.7s-5.3 3.1-10.7 1.9-8.7-6.4-8.7-6.4 5.3-3.1 10.7-1.9c5.3 1.3 8.7 6.4 8.7 6.4z"/>
      <path class="st5" d="M137.9 206.8s-6 1.3-9.1 5.8c-3.1 4.5-2.1 10.6-2.1 10.6s6-1.3 9.1-5.8c3.1-4.6 2.1-10.6 2.1-10.6z"/>
    </g>
    <g>
      <path class="st5" d="M115.6 206.2s-5 2.9-10 1.8c-5-1.2-8.2-6-8.2-6s5-2.9 10-1.8 8.2 6 8.2 6z"/>
      <path class="st5" d="M128.6 190.2s-5.7 1.2-8.6 5.5-2 10-2 10 5.7-1.2 8.6-5.5c2.9-4.2 2-10 2-10z"/>
    </g>
    <g>
      <path class="st5" d="M109 194.6s-5 2.9-10 1.8-8.2-6-8.2-6 5-2.9 10-1.8 8.2 6 8.2 6z"/>
      <path class="st5" d="M122 178.6s-5.7 1.2-8.6 5.5-2 10-2 10 5.7-1.2 8.6-5.5 2-10 2-10z"/>
    </g>
    <g>
      <path class="st5" d="M99.9 182.7s-5 2.9-10 1.8-8.2-6-8.2-6 5-2.9 10-1.8 8.2 6 8.2 6z"/>
      <path class="st5" d="M112.9 166.8s-5.7 1.2-8.6 5.5-2 10-2 10 5.7-1.2 8.6-5.5 2-10 2-10z"/>
    </g>
    <g>
      <path class="st5" d="M92.5 171.7s-3.9 2.3-7.9 1.4-6.5-4.8-6.5-4.8 3.9-2.3 7.9-1.4c4 1 6.5 4.8 6.5 4.8z"/>
      <path class="st5" d="M102.8 159.2s-4.5 1-6.8 4.3c-2.3 3.4-1.6 7.9-1.6 7.9s4.5-1 6.8-4.3 1.6-7.9 1.6-7.9z"/>
    </g>
  </g>
  <path class="st5" d="M299.7 277.7s14.7 12.6 31.4-4.1c0 0 12.1 104 25.1 107l-70.9.9s24-68.8 14.4-103.8z"/>
</svg>
