<?xml version="1.0" encoding="UTF-8" standalone="no"?><!DOCTYPE svg PUBLIC "-//W3C//DTD SVG 1.1//EN" "http://www.w3.org/Graphics/SVG/1.1/DTD/svg11.dtd"><svg width="100%" height="100%" viewBox="0 0 11113 11113" version="1.1" xmlns="http://www.w3.org/2000/svg" xmlns:xlink="http://www.w3.org/1999/xlink" xml:space="preserve" xmlns:serif="http://www.serif.com/" style="fill-rule:evenodd;clip-rule:evenodd;stroke-linejoin:round;stroke-miterlimit:2;"><g><path d="M3269.12,7052.75c-0,0 4.333,320.671 214.504,485.342c0,-0 -95.333,-576.346 463.679,-578.513c569.846,-2.166 -403.008,-208.004 -678.183,93.171Z" style="fill:#fdcd9a;fill-rule:nonzero;"/><path d="M5035,3037.82c0,-0 -164.671,823.35 0,1059.53c88.833,130 130.004,288.171 149.504,405.175c26.584,179.858 182.567,314.475 364.375,314.475c42.729,-0 85.129,-7.43 125.3,-21.971c116.938,-43.117 204.346,-142.763 231.842,-264.338c49.833,-212.337 153.833,-611.012 273.004,-780.016c52,-71.505 71.5,-162.505 65,-249.175c-6.15,-130.067 -36.271,-257.88 -88.833,-377.009c-99.671,-177.671 -138.671,-127.833 -199.338,-372.675c-58.5,-242.671 -1046.53,-6.5 -1042.19,0c-0,8.667 147.337,134.338 121.337,286.009Z" style="fill:#fccb98;fill-rule:nonzero;"/><path d="M4987.33,2853.65c-43.337,-95.338 411.675,660.85 827.684,91c93.171,-127.833 117.004,-158.167 117.004,-255.671l-0,21.667l-944.688,143.004Z" style="fill:#e8b47f;fill-rule:nonzero;"/><path d="M5015.5,2868.81c-188.504,-186.338 -346.675,-530.846 -223.171,-1161.36l19.5,-71.504c43.334,-134.333 203.671,-563.346 537.346,-712.85c398.675,-177.671 702.013,634.85 738.85,853.687c28.167,166.838 69.333,741.017 -255.675,1081.19c-107.25,114.1 -257.058,178.904 -413.646,178.904c-151.391,0 -296.646,-60.558 -403.204,-168.071Z" style="fill:#fdcd9a;fill-rule:nonzero;"/><path d="M4987.33,2844.98c0,0 -580.683,-1202.53 262.171,-1707.37c86.667,-52.004 190.671,-73.671 292.508,-54.171c71.501,15.167 149.501,49.838 212.338,127.838l374.842,-353.175c-0,-0 -509.179,-530.846 -1235.03,-112.671c-429.009,247.008 -561.18,754.021 -515.68,1334.7c24.355,272.05 77.375,540.767 158.171,801.684c150.025,-14.559 300.263,-26.846 450.679,-36.834Z" style="fill:#553b23;fill-rule:nonzero;"/><path d="M5789,1222.11l361.842,-357.508c-0,0 268.671,75.837 309.841,615.346c60.667,780.021 -132.17,1232.86 -132.17,1232.86l-377.009,26c2.167,-4.333 437.675,-855.85 -162.504,-1516.7Z" style="fill:#553b23;fill-rule:nonzero;"/><path d="M5035,3037.82c0,-0 -650.017,552.512 -1193.86,866.687c-221.417,126.817 -376.075,344.938 -422.509,595.846c-60.3,389.833 -77.004,785.175 -49.833,1178.69l-0,13c-25.417,299.333 -100.863,592.296 -223.171,866.687c-87.842,153.642 -94.342,341.171 -17.337,500.513c16.037,32.479 49.25,53.125 85.479,53.125c22.662,-0 44.612,-8.08 61.858,-22.792c212.471,-179.838 499.363,-246.117 769.183,-177.671l21.671,2.167l3520.91,-65l32.5,4.333c52,19.5 182.004,95.334 203.671,390.009c13,184.17 67.166,158.17 114.837,86.666c66.258,-99.3 91.867,-220.375 71.5,-338.008c-75.833,-485.342 -309.842,-2038.88 -294.675,-2550.22c17.333,-561.183 -643.512,-897.021 -697.679,-923.021l-6.5,-2.167c-56.338,-21.67 -860.188,-344.508 -968.525,-539.512c-0,-0 290.342,507.008 -36.833,1148.36c-279.505,546.013 138.67,2069.21 270.841,2511.22c2.404,8.454 3.617,17.204 3.617,26.004c-0,52.021 -42.596,94.946 -94.621,95.334l-1034.45,-0c-51.113,-0 -93.171,-42.054 -93.171,-93.167c0,-8.042 1.042,-16.058 3.1,-23.837c93.167,-400.842 394.342,-1700.87 39,-2428.89c-39.15,-73.017 -70.396,-150 -93.167,-229.671c-60.95,-313.066 -51.329,-635.821 28.167,-944.687Z" style="fill:#f5f1e6;fill-rule:nonzero;"/><path d="M5500.83,10471.8c-1893.71,366.175 -3029.07,-1425.69 -4053.93,-2316.22c-500.508,-433.346 -186.337,-1733.38 907.854,-1235.03c561.18,374.842 1289.2,749.684 1850.38,1122.36l2987.91,-0c504.841,-372.675 990.187,-849.354 1601.2,-988.021c819.02,-184.171 1427.87,736.683 910.02,1293.53c-669.512,719.35 -2181.88,2246.88 -4203.42,2123.38l-0.013,0Z" style="fill:#7ca7eb;"/><path d="M7934.04,7761.25c-439.846,273.004 -650.017,676.013 -1085.53,1016.19c-504.109,366.541 -1038.31,689.795 -1596.87,966.354c-140.838,41.171 -331.508,208.004 -472.346,249.175c-17.333,216.671 13.004,223.171 -4.333,439.841c349.971,46.175 704.616,-43.854 990.191,-251.337c989.692,-426.042 1972.08,-868.833 2946.73,-1328.2c316.341,-147.337 546.012,-472.346 353.175,-842.854c-231.842,-450.679 -775.688,-470.179 -1131.03,-249.171Z" style="fill:#fccb98;"/><path d="M4759.83,10517.3c-457.175,2.167 -916.521,-13.004 -1373.7,8.667c-422.508,19.5 -543.845,-1113.69 203.671,-886.188c461.509,140.838 782.184,299.005 1215.53,312.005c199.337,-8.667 307.67,587.183 -45.505,565.516Z" style="fill:#f5f1e6;"/><path d="M2807.61,7436.25c366.175,264.338 728.016,643.513 1124.53,985.854c576.345,496.179 1174.36,970.688 1661.87,1252.36c151.129,102.658 334.084,148.008 515.679,127.837c8.667,0 -71.504,0 84.5,-6.5c101.838,-4.333 208.005,158.167 251.338,249.171c45.504,97.504 80.171,82.333 123.504,179.838c71.504,151.67 -309.842,221.004 -318.508,218.837c-188.504,-23.833 -429.009,-2.167 -585.013,-110.5c-34.666,-23.837 -104,-17.337 -138.671,-43.337c-46.583,-32.996 -95.854,-61.988 -147.333,-86.667c-1146.2,-567.679 -2116.88,-977.188 -3388.75,-1763.71c-149.504,-93.167 -368.341,-591.513 -49.833,-901.355c273.004,-262.17 606.679,-288.17 866.687,-101.833Z" style="fill:#fccb98;"/><path d="M5992.67,9819.62c318.508,-75.837 669.516,0 968.52,-136.504c866.688,-396.508 1297.86,916.521 221.005,825.517c-392.175,-32.501 -788.684,-41.167 -1183.03,-62.834c-143.004,-216.671 -166.838,-426.841 -6.5,-626.179Z" style="fill:#f5f1e6;"/><path d="M3514.68,9177.58c-54.167,8.667 -366.887,-2046.83 -418.892,-2301.79l4823.83,-12.263c-0,0 -251.554,1975.59 -285.271,2223.05c-14.579,106.971 -4104.5,88.838 -4119.66,91.004l-0.008,0Z" style="fill:url(#_Linear1);fill-rule:nonzero;stroke:#000;stroke-width:10.83px;"/><path d="M5225.67,4619.5c-0,0 318.508,273.004 680.35,-88.837c-0,-0 262.171,2253.38 543.845,2318.39l-1536.2,19.5c0,0 520.013,-1490.7 312.009,-2249.05Z" style="fill:#7ca7eb;fill-rule:nonzero;"/></g><defs><linearGradient id="_Linear1" x1="0" y1="0" x2="1" y2="0" gradientUnits="userSpaceOnUse" gradientTransform="matrix(1.3798e-13,2253.38,-2253.38,1.3798e-13,5611.33,6849.08)"><stop offset="0" style="stop-color:#f2ebef;stop-opacity:1"/><stop offset="1" style="stop-color:#91b1a9;stop-opacity:1"/></linearGradient></defs></svg>