<?xml version="1.0" encoding="utf-8"?>
<!-- Generator: Adobe Illustrator 23.0.3, SVG Export Plug-In . SVG Version: 6.00 Build 0)  -->
<svg version="1.1" id="Layer_1" xmlns="http://www.w3.org/2000/svg" xmlns:xlink="http://www.w3.org/1999/xlink" x="0px" y="0px"
	 viewBox="0 0 640 640" style="enable-background:new 0 0 640 640;" xml:space="preserve">
<style type="text/css">
	.st0{fill-rule:evenodd;clip-rule:evenodd;fill:url(#SVGID_1_);}
	.st1{fill:#FDCD9A;}
	.st2{fill:#E8B47F;}
	.st3{fill:#382200;}
	.st4{opacity:0.67;}
	.st5{fill:#00596E;}
	.st6{fill:#FFB600;}
	.st7{fill-rule:evenodd;clip-rule:evenodd;fill:#00596E;}
	.st8{fill-rule:evenodd;clip-rule:evenodd;fill:#ECB781;}
	.st9{fill-rule:evenodd;clip-rule:evenodd;fill:#DFDFDE;}
	.st10{fill-rule:evenodd;clip-rule:evenodd;fill:#FCCB98;}
	.st11{fill:url(#SVGID_2_);}
	.st12{opacity:0.68;}
</style>
<g>
	
		<linearGradient id="SVGID_1_" gradientUnits="userSpaceOnUse" x1="76.6979" y1="658.5836" x2="606.3589" y2="475.2339" gradientTransform="matrix(1 0 0 1 0 -256)">
		<stop  offset="0" style="stop-color:#3690BD"/>
		<stop  offset="1" style="stop-color:#FFB600"/>
	</linearGradient>
	<path class="st0" d="M48.4,287c65.2-266,454.7-322.7,456-191.2c1.2,126.7,87.7,131.5,98.7,230.4c13.3,119.5-104.4,234.5-241,255.7
		C113.7,620.3,20.5,400.8,48.4,287z"/>
	<path class="st1" d="M209.4,390c0,0,0.2,14.8,9.9,22.4c0,0-4.4-26.6,21.4-26.7C267,385.6,222.1,376.1,209.4,390z"/>
	<path class="st1" d="M290.9,204.7c0,0-7.6,38,0,48.9c4.1,6,6,13.3,6.9,18.7c1.6,10.1,11.7,16.9,21.5,13.9c0.4-0.1,0.7-0.2,1.1-0.4
		c5.4-1.9,9.4-6.6,10.7-12.2c2.3-9.8,7.1-28.2,12.6-36c2.4-3.3,3.3-7.5,3-11.5c-0.5-5.6-1.6-12.9-4.1-17.4
		c-4.6-8.2-6.4-5.9-9.2-17.2c-2.7-11.2-48.3-0.3-48.1,0C285.3,191.9,292.1,197.7,290.9,204.7z"/>
	<path class="st2" d="M288.7,196.2c-2-4.4,19,30.5,38.2,4.2c4.3-5.9,5.4-7.3,5.4-11.8v1L288.7,196.2z"/>
	<path class="st1" d="M290,196.9c-8.7-8.6-16-24.5-10.3-53.6c0.2-1.1,0.5-2.2,0.9-3.3c2-6.2,9.4-26,24.8-32.9
		c18.4-8.2,32.4,29.3,34.1,39.4c1.3,7.7,3.2,34.2-11.8,49.9C317.5,207.3,300.6,207.4,290,196.9z"/>
	<path class="st3" d="M288.7,195.8c0,0-26.8-55.5,12.1-78.8c4-2.4,8.8-3.4,13.5-2.5c3.3,0.7,6.9,2.3,9.8,5.9l17.3-16.3
		c0,0-23.5-24.5-57-5.2c-19.8,11.4-25.9,34.8-23.8,61.6c1.4,18.9,7.3,37,7.3,37C274,196.8,288.7,195.8,288.7,195.8z"/>
	<path class="st3" d="M325.7,120.9l16.7-16.5c0,0,12.4,3.5,14.3,28.4c2.8,36-6.1,56.9-6.1,56.9l-17.4,1.2
		C333.3,190.7,353.4,151.4,325.7,120.9z"/>
	<g class="st4">
		<g>
			<path class="st5" d="M389.3,389.6c-0.1-10.1,0-20.2,0.3-30.3c0.3-10.1,0.8-20.2,1.4-30.3c1.3-20.1,3.2-40.3,6-60.3
				c0.7-5,1.5-10,2.2-15c0.9-5,1.7-10,2.7-14.9c0.9-5,2-9.9,3-14.8c1.2-4.9,2.2-9.8,3.6-14.7c2.5-9.8,5.4-19.5,8.8-29
				s7.3-18.8,12-27.8c-4.6,9-8.4,18.3-11.7,27.9c-3.4,9.5-6.1,19.2-8.6,29c-1.3,4.9-2.3,9.8-3.4,14.7c-1,4.9-2,9.9-2.9,14.8
				c-0.9,5-1.7,9.9-2.5,14.9c-0.7,5-1.5,10-2.1,15c-2.6,20-4.4,40.1-5.5,60.2c-0.6,10.1-0.9,20.1-1.2,30.2
				c-0.2,10.1-0.3,20.2-0.1,30.2L389.3,389.6z"/>
		</g>
		<g>
			<path class="st5" d="M392,371.8c0,0,9,2.9,16.6-0.8c7.6-3.7,10.9-12.5,10.9-12.5s-9-2.9-16.6,0.8C395.3,363,392,371.8,392,371.8z
				"/>
			<path class="st5" d="M365.6,351.1c0,0,9.4-0.1,15.6,5.6s6.7,15.2,6.7,15.2s-9.4,0.1-15.6-5.6S365.6,351.1,365.6,351.1z"/>
		</g>
		<g>
			<path class="st5" d="M392.7,351.1c0,0,9,2.9,16.6-0.8c7.6-3.7,10.9-12.5,10.9-12.5s-9-2.9-16.6,0.8
				C396,342.2,392.7,351.1,392.7,351.1z"/>
			<path class="st5" d="M366.3,330.4c0,0,9.4-0.1,15.6,5.6s6.7,15.2,6.7,15.2s-9.4,0.1-15.6-5.6
				C366.8,339.8,366.3,330.4,366.3,330.4z"/>
		</g>
		<g>
			<path class="st5" d="M393.4,330.3c0,0,9,2.9,16.6-0.8c7.6-3.7,10.9-12.5,10.9-12.5s-9-2.9-16.6,0.8
				C396.7,321.4,393.4,330.3,393.4,330.3z"/>
			<path class="st5" d="M367,309.6c0,0,9.4-0.1,15.6,5.6s6.7,15.2,6.7,15.2s-9.4,0.1-15.6-5.6C367.6,319,367,309.6,367,309.6z"/>
		</g>
		<g>
			<path class="st5" d="M395.3,308.5c0,0,8.4,2.7,15.5-0.7c7.1-3.4,10.2-11.7,10.2-11.7s-8.4-2.7-15.5,0.7
				C398.3,300.2,395.3,308.5,395.3,308.5z"/>
			<path class="st5" d="M370.6,289.2c0,0,8.8-0.1,14.6,5.3s6.3,14.2,6.3,14.2s-8.8,0.1-14.6-5.3C371.1,298,370.6,289.2,370.6,289.2z
				"/>
		</g>
		<g>
			<path class="st5" d="M397.1,286.3c0,0,7.5,2.4,13.8-0.7s9.1-10.5,9.1-10.5s-7.5-2.4-13.8,0.7
				C399.9,278.9,397.1,286.3,397.1,286.3z"/>
			<path class="st5" d="M375.1,269c0,0,7.9-0.1,13,4.7c5.1,4.8,5.6,12.7,5.6,12.7s-7.9,0.1-13-4.7C375.5,276.9,375.1,269,375.1,269z
				"/>
		</g>
		<g>
			<path class="st5" d="M400,263.7c0,0,6.5,2.1,11.9-0.6c5.4-2.6,7.8-9,7.8-9s-6.5-2.1-11.9,0.6S400,263.7,400,263.7z"/>
			<path class="st5" d="M381,248.8c0,0,6.8-0.1,11.2,4c4.4,4.1,4.8,10.9,4.8,10.9s-6.8,0.1-11.2-4C381.4,255.6,381,248.8,381,248.8z
				"/>
		</g>
		<g>
			<path class="st5" d="M402.5,244.8c0,0,5.9,1.9,10.8-0.5s7.1-8.2,7.1-8.2s-5.9-1.9-10.8,0.5C404.6,239.1,402.5,244.8,402.5,244.8z
				"/>
			<path class="st5" d="M385.2,231.3c0,0,6.2-0.1,10.2,3.7s4.4,9.9,4.4,9.9s-6.2,0.1-10.2-3.7C385.6,237.5,385.2,231.3,385.2,231.3z
				"/>
		</g>
		<g>
			<path class="st5" d="M406.7,227.1c0,0,6.5,2.1,11.9-0.6c5.4-2.6,7.8-9,7.8-9s-6.5-2.1-11.9,0.6
				C409,220.7,406.7,227.1,406.7,227.1z"/>
			<path class="st5" d="M387.7,212.3c0,0,6.8-0.1,11.2,4c4.4,4.1,4.8,10.9,4.8,10.9s-6.8,0.1-11.2-4S387.7,212.3,387.7,212.3z"/>
		</g>
		<g>
			<path class="st5" d="M410.8,211c0,0,5.9,1.9,10.8-0.5s7.1-8.2,7.1-8.2s-5.9-1.9-10.8,0.5C412.9,205.2,410.8,211,410.8,211z"/>
			<path class="st5" d="M393.6,197.5c0,0,6.2-0.1,10.2,3.7c4,3.7,4.4,9.9,4.4,9.9s-6.2,0.1-10.2-3.7S393.6,197.5,393.6,197.5z"/>
		</g>
		<g>
			<path class="st5" d="M415.2,192c0,0,5.5,1.8,10.2-0.5s6.7-7.7,6.7-7.7s-5.5-1.8-10.2,0.5S415.2,192,415.2,192z"/>
			<path class="st5" d="M399,179.3c0,0,5.8-0.1,9.6,3.4c3.8,3.5,4.1,9.3,4.1,9.3s-5.8,0.1-9.6-3.4S399,179.3,399,179.3z"/>
		</g>
		<g>
			<path class="st5" d="M419,179.2c0,0,5.5,1.8,10.2-0.5c4.6-2.3,6.7-7.7,6.7-7.7s-5.5-1.8-10.2,0.5S419,179.2,419,179.2z"/>
			<path class="st5" d="M402.8,166.5c0,0,5.8-0.1,9.6,3.4c3.8,3.5,4.1,9.3,4.1,9.3s-5.8,0.1-9.6-3.4
				C403.2,172.3,402.8,166.5,402.8,166.5z"/>
		</g>
		<g>
			<path class="st5" d="M425.3,165.6c0,0,5.5,1.8,10.2-0.5c4.6-2.3,6.7-7.7,6.7-7.7s-5.5-1.8-10.2,0.5
				C427.3,160.2,425.3,165.6,425.3,165.6z"/>
			<path class="st5" d="M409.1,152.9c0,0,5.8-0.1,9.6,3.4c3.8,3.5,4.1,9.3,4.1,9.3s-5.8,0.1-9.6-3.4S409.1,152.9,409.1,152.9z"/>
		</g>
		<g>
			<path class="st5" d="M430.1,153.3c0,0,4.4,1.4,8-0.4c3.7-1.8,5.3-6.1,5.3-6.1s-4.4-1.4-8,0.4S430.1,153.3,430.1,153.3z"/>
			<path class="st5" d="M417.3,143.3c0,0,4.6-0.1,7.6,2.7s3.3,7.3,3.3,7.3s-4.6,0.1-7.6-2.7C417.6,147.8,417.3,143.3,417.3,143.3z"
				/>
		</g>
	</g>
	<path class="st6" d="M290.9,204.7c0,0-30,25.5-55.1,40c-10.2,5.9-17.4,15.9-19.5,27.5c-2.1,11.5-3.5,28.8-2.3,54.4
		c0,0.2,0,0.4,0,0.6c-0.2,2.8-2.4,24.6-10.3,40c-5.2,10-3.2,18.2-0.8,23.1c1.3,2.6,4.6,3.2,6.8,1.4c5.6-4.8,17.7-12.2,35.5-8.2
		c0.3,0.1,0.7,0.1,1,0.1l162.5-3c0.5,0,1,0.1,1.5,0.2c2.4,0.9,8.4,4.4,9.4,18c0.6,8.5,3.1,7.3,5.3,4c3.1-4.6,4.2-10.2,3.3-15.6
		c-3.5-22.4-14.3-94.1-13.6-117.7c0.8-25.9-29.7-41.4-32.2-42.6c-0.1-0.1-0.2-0.1-0.3-0.1c-2.6-1-39.7-15.9-44.7-24.9
		c0,0,13.4,23.4-1.7,53c-12.9,25.2,6.4,95.5,12.5,115.9c0.8,2.8-1.3,5.6-4.2,5.6h-47.7c-2.8,0-4.9-2.6-4.2-5.4
		c4.3-18.5,18.2-78.5,1.8-112.1c-1.4-2.8-3.7-7.6-4.3-10.6C288,239.7,285.9,222.4,290.9,204.7z"/>
	<path class="st7" d="M312.4,547.8C225,564.7,172.6,482,125.3,440.9c-23.1-20-8.6-80,41.9-57c25.9,17.3,59.5,34.6,85.4,51.8
		c48.5,0,89.4,0,137.9,0c23.3-17.2,45.7-39.2,73.9-45.6c37.8-8.5,65.9,34,42,59.7C475.5,483,405.7,553.5,312.4,547.8z"/>
	<path class="st8" d="M424.7,422.7c-20.3,12.6-30,31.2-50.1,46.9c-20.3,15.8-50.8,32.9-73.7,44.6c-6.5,1.9-15.3,9.6-21.8,11.5
		c-0.8,10,0.6,10.3-0.2,20.3c14.9,1.8,30.1-0.8,45.7-11.6c46.5-19.4,125.4-56.3,136-61.3c14.6-6.8,25.2-21.8,16.3-38.9
		C466.2,413.4,441.1,412.5,424.7,422.7z"/>
	<path class="st9" d="M278.2,549.9c-21.1,0.1-42.3-0.6-63.4,0.4c-19.5,0.9-25.1-51.4,9.4-40.9c21.3,6.5,36.1,13.8,56.1,14.4
		C289.5,523.4,294.5,550.9,278.2,549.9z"/>
	<path class="st10" d="M188.1,407.7c16.9,12.2,33.6,29.7,51.9,45.5c26.6,22.9,54.2,44.8,76.7,57.8c8.3,4.8,14.2,6.8,23.8,5.9
		c0.4,0-3.3,0,3.9-0.3c4.7-0.2,9.6,7.3,11.6,11.5c2.1,4.5,3.7,3.8,5.7,8.3c3.3,7-14.3,10.2-14.7,10.1c-8.7-1.1-19.8-0.1-27-5.1
		c-1.6-1.1-4.8-0.8-6.4-2c-2.3-1.6-4.3-2.8-6.8-4c-52.9-26.2-97.7-45.1-156.4-81.4c-6.9-4.3-17-27.3-2.3-41.6
		C160.7,400.3,176.1,399.1,188.1,407.7z"/>
	<path class="st9" d="M335.1,517.7c14.7-3.5,30.9,0,44.7-6.3c40-18.3,59.9,42.3,10.2,38.1c-18.1-1.5-36.4-1.9-54.6-2.9
		C328.8,536.6,327.7,526.9,335.1,517.7z"/>
	
		<linearGradient id="SVGID_2_" gradientUnits="userSpaceOnUse" x1="317.4937" y1="636.575" x2="317.4937" y2="740.5885" gradientTransform="matrix(1 0 0 1 0 -256)">
		<stop  offset="0" style="stop-color:#DFDFDE"/>
		<stop  offset="1" style="stop-color:#9C9F97"/>
	</linearGradient>
	<path class="st11" d="M217.5,397.6c2.6-9,10.3-15,18.9-15.1l169.3-1.9c0,0,17-1.9,13.7,27.4c0,0.6-1.8,49.5-1.8,49.5
		s0.3,26-20.4,26.7c-23.4,0.8-166.1,0.1-166.8,0.2c-2.5,0.4-10.7-0.7-13.3-30.9C214.7,426.7,214.2,408.9,217.5,397.6z"/>
	<g class="st12">
		<g>
			<path class="st5" d="M443.6,397.2c2.1-9.9,4.5-19.7,7-29.5s5.2-19.5,8-29.2c5.7-19.4,12-38.6,19.1-57.5c1.8-4.7,3.6-9.4,5.5-14.1
				s3.8-9.3,5.9-14c2-4.6,4.1-9.2,6.2-13.8c2.2-4.5,4.4-9.1,6.7-13.6c4.6-9,9.5-17.8,15-26.3c5.4-8.5,11.3-16.7,17.8-24.4
				c-6.4,7.8-12.2,16-17.6,24.6c-5.4,8.5-10.2,17.4-14.8,26.4c-2.3,4.5-4.4,9.1-6.6,13.6c-2.1,4.6-4.2,9.2-6.1,13.8
				c-2,4.6-3.9,9.3-5.8,14c-1.8,4.7-3.7,9.4-5.4,14.1c-7,18.9-13.1,38.1-18.6,57.5c-2.8,9.7-5.4,19.4-7.8,29.2
				c-2.4,9.8-4.7,19.6-6.7,29.5L443.6,397.2z"/>
		</g>
		<g>
			<path class="st5" d="M450.1,380.5c0,0,8.1,4.8,16.3,2.9c8.2-1.9,13.4-9.8,13.4-9.8s-8.1-4.8-16.3-2.9
				C455.2,372.6,450.1,380.5,450.1,380.5z"/>
			<path class="st5" d="M428.9,354.5c0,0,9.2,2,14,8.9c4.7,7,3.2,16.3,3.2,16.3s-9.2-2-14-8.9C427.3,363.8,428.9,354.5,428.9,354.5z
				"/>
		</g>
		<g>
			<path class="st5" d="M455.4,360.4c0,0,8.1,4.8,16.3,2.9c8.2-1.9,13.4-9.8,13.4-9.8s-8.1-4.8-16.3-2.9
				C460.5,352.5,455.4,360.4,455.4,360.4z"/>
			<path class="st5" d="M434.2,334.4c0,0,9.2,2,14,8.9c4.7,7,3.2,16.3,3.2,16.3s-9.2-2-14-8.9C432.6,343.7,434.2,334.4,434.2,334.4z
				"/>
		</g>
		<g>
			<path class="st5" d="M460.7,340.3c0,0,8.1,4.8,16.3,2.9c8.2-1.9,13.4-9.8,13.4-9.8s-8.1-4.8-16.3-2.9
				C465.8,332.4,460.7,340.3,460.7,340.3z"/>
			<path class="st5" d="M439.5,314.3c0,0,9.2,2,14,8.9c4.7,7,3.2,16.3,3.2,16.3s-9.2-2-14-8.9C437.9,323.6,439.5,314.3,439.5,314.3z
				"/>
		</g>
		<g>
			<path class="st5" d="M467.3,319.4c0,0,7.6,4.5,15.3,2.7c7.7-1.8,12.5-9.2,12.5-9.2s-7.6-4.5-15.3-2.7
				C472.1,312,467.3,319.4,467.3,319.4z"/>
			<path class="st5" d="M447.4,295.1c0,0,8.6,1.8,13.1,8.3c4.4,6.5,3,15.2,3,15.2s-8.6-1.8-13.1-8.3
				C446,303.8,447.4,295.1,447.4,295.1z"/>
		</g>
		<g>
			<path class="st5" d="M474,298.2c0,0,6.8,4,13.6,2.4s11.1-8.2,11.1-8.2s-6.8-4-13.6-2.4S474,298.2,474,298.2z"/>
			<path class="st5" d="M456.3,276.5c0,0,7.7,1.6,11.7,7.4s2.7,13.6,2.7,13.6s-7.7-1.6-11.7-7.4C455,284.3,456.3,276.5,456.3,276.5z
				"/>
		</g>
		<g>
			<path class="st5" d="M481.8,276.8c0,0,5.8,3.4,11.7,2.1c5.9-1.4,9.6-7.1,9.6-7.1s-5.8-3.4-11.7-2.1S481.8,276.8,481.8,276.8z"/>
			<path class="st5" d="M466.5,258.1c0,0,6.6,1.4,10,6.4s2.3,11.7,2.3,11.7s-6.6-1.4-10-6.4C465.4,264.8,466.5,258.1,466.5,258.1z"
				/>
		</g>
		<g>
			<path class="st5" d="M488.3,258.9c0,0,5.3,3.1,10.7,1.9c5.4-1.3,8.7-6.4,8.7-6.4s-5.3-3.1-10.7-1.9
				C491.7,253.8,488.3,258.9,488.3,258.9z"/>
			<path class="st5" d="M474.5,242c0,0,6,1.3,9.1,5.8s2.1,10.6,2.1,10.6s-6-1.3-9.1-5.8C473.5,248.1,474.5,242,474.5,242z"/>
		</g>
		<g>
			<path class="st5" d="M496.4,242.6c0,0,5.8,3.4,11.7,2.1c5.9-1.4,9.6-7.1,9.6-7.1s-5.8-3.4-11.7-2.1S496.4,242.6,496.4,242.6z"/>
			<path class="st5" d="M481.1,223.9c0,0,6.6,1.4,10,6.4s2.3,11.7,2.3,11.7s-6.6-1.4-10-6.4C480,230.6,481.1,223.9,481.1,223.9z"/>
		</g>
		<g>
			<path class="st5" d="M503.9,227.7c0,0,5.3,3.1,10.7,1.9c5.4-1.3,8.7-6.4,8.7-6.4s-5.3-3.1-10.7-1.9S503.9,227.7,503.9,227.7z"/>
			<path class="st5" d="M490.1,210.8c0,0,6,1.3,9.1,5.8s2.1,10.6,2.1,10.6s-6-1.3-9.1-5.8S490.1,210.8,490.1,210.8z"/>
		</g>
		<g>
			<path class="st5" d="M512.4,210.2c0,0,5,2.9,10,1.8c5-1.2,8.2-6,8.2-6s-5-2.9-10-1.8C515.6,205.3,512.4,210.2,512.4,210.2z"/>
			<path class="st5" d="M499.4,194.2c0,0,5.7,1.2,8.6,5.5s2,10,2,10s-5.7-1.2-8.6-5.5C498.5,200,499.4,194.2,499.4,194.2z"/>
		</g>
		<g>
			<path class="st5" d="M519,198.6c0,0,5,2.9,10,1.8c5-1.2,8.2-6,8.2-6s-5-2.9-10-1.8C522.1,193.7,519,198.6,519,198.6z"/>
			<path class="st5" d="M506,182.6c0,0,5.7,1.2,8.6,5.5c2.9,4.3,2,10,2,10s-5.7-1.2-8.6-5.5C505,188.4,506,182.6,506,182.6z"/>
		</g>
		<g>
			<path class="st5" d="M528.1,186.7c0,0,5,2.9,10,1.8s8.2-6,8.2-6s-5-2.9-10-1.8S528.1,186.7,528.1,186.7z"/>
			<path class="st5" d="M515.1,170.8c0,0,5.7,1.2,8.6,5.5c2.9,4.3,2,10,2,10s-5.7-1.2-8.6-5.5C514.1,176.5,515.1,170.8,515.1,170.8z
				"/>
		</g>
		<g>
			<path class="st5" d="M535.5,175.8c0,0,3.9,2.3,7.9,1.4c4-0.9,6.5-4.8,6.5-4.8s-3.9-2.3-7.9-1.4S535.5,175.8,535.5,175.8z"/>
			<path class="st5" d="M525.2,163.2c0,0,4.5,1,6.8,4.3c2.3,3.4,1.6,7.9,1.6,7.9s-4.5-1-6.8-4.3
				C524.5,167.7,525.2,163.2,525.2,163.2z"/>
		</g>
	</g>
	<g class="st12">
		<g>
			<path class="st5" d="M182.5,393.6c-2-9.9-4.3-19.7-6.7-29.5s-5-19.5-7.8-29.2c-5.5-19.4-11.6-38.6-18.6-57.5
				c-1.7-4.7-3.6-9.4-5.4-14.1c-1.9-4.7-3.7-9.4-5.8-14c-1.9-4.7-4-9.2-6.1-13.8c-2.2-4.6-4.3-9.1-6.6-13.6
				c-4.5-9-9.4-17.9-14.8-26.4s-11.2-16.8-17.6-24.6c6.5,7.7,12.4,15.9,17.8,24.4c5.5,8.5,10.4,17.3,15,26.3c2.4,4.5,4.5,9,6.7,13.6
				c2.1,4.6,4.3,9.2,6.2,13.8c2.1,4.6,3.9,9.3,5.9,14c1.8,4.7,3.7,9.4,5.5,14.1c7.2,18.9,13.4,38.1,19.1,57.5
				c2.8,9.7,5.5,19.4,8,29.2c2.5,9.8,4.9,19.6,7,29.5L182.5,393.6z"/>
		</g>
		<g>
			<path class="st5" d="M177.9,376.5c0,0-8.1,4.8-16.3,2.9s-13.4-9.8-13.4-9.8s8.1-4.8,16.3-2.9S177.9,376.5,177.9,376.5z"/>
			<path class="st5" d="M199.1,350.5c0,0-9.2,2-14,8.9c-4.7,7-3.2,16.3-3.2,16.3s9.2-2,14-8.9C200.7,359.8,199.1,350.5,199.1,350.5z
				"/>
		</g>
		<g>
			<path class="st5" d="M172.6,356.4c0,0-8.1,4.8-16.3,2.9s-13.4-9.8-13.4-9.8s8.1-4.8,16.3-2.9
				C167.4,348.5,172.6,356.4,172.6,356.4z"/>
			<path class="st5" d="M193.8,330.4c0,0-9.2,2-14,8.9s-3.2,16.3-3.2,16.3s9.2-2,14-8.9S193.8,330.4,193.8,330.4z"/>
		</g>
		<g>
			<path class="st5" d="M167.3,336.3c0,0-8.1,4.8-16.3,2.9s-13.4-9.8-13.4-9.8s8.1-4.8,16.3-2.9S167.3,336.3,167.3,336.3z"/>
			<path class="st5" d="M188.5,310.3c0,0-9.2,2-14,8.9c-4.7,7-3.2,16.3-3.2,16.3s9.2-2,14-8.9C190,319.6,188.5,310.3,188.5,310.3z"
				/>
		</g>
		<g>
			<path class="st5" d="M160.7,315.4c0,0-7.6,4.5-15.3,2.7s-12.5-9.2-12.5-9.2s7.6-4.5,15.3-2.7C155.9,308,160.7,315.4,160.7,315.4z
				"/>
			<path class="st5" d="M180.6,291.1c0,0-8.6,1.8-13.1,8.3c-4.4,6.5-3,15.2-3,15.2s8.6-1.8,13.1-8.3
				C182,299.8,180.6,291.1,180.6,291.1z"/>
		</g>
		<g>
			<path class="st5" d="M154,294.2c0,0-6.8,4-13.6,2.4s-11.1-8.2-11.1-8.2s6.8-4,13.6-2.4S154,294.2,154,294.2z"/>
			<path class="st5" d="M171.7,272.5c0,0-7.7,1.6-11.7,7.4s-2.7,13.6-2.7,13.6s7.7-1.6,11.7-7.4C173,280.3,171.7,272.5,171.7,272.5z
				"/>
		</g>
		<g>
			<path class="st5" d="M146.2,272.8c0,0-5.8,3.4-11.7,2.1s-9.6-7.1-9.6-7.1s5.8-3.4,11.7-2.1S146.2,272.8,146.2,272.8z"/>
			<path class="st5" d="M161.5,254.1c0,0-6.6,1.4-10,6.4s-2.3,11.7-2.3,11.7s6.6-1.4,10-6.4C162.6,260.8,161.5,254.1,161.5,254.1z"
				/>
		</g>
		<g>
			<path class="st5" d="M139.7,254.9c0,0-5.3,3.1-10.7,1.9s-8.7-6.4-8.7-6.4s5.3-3.1,10.7-1.9S139.7,254.9,139.7,254.9z"/>
			<path class="st5" d="M153.5,238c0,0-6,1.3-9.1,5.8s-2.1,10.6-2.1,10.6s6-1.3,9.1-5.8C154.5,244,153.5,238,153.5,238z"/>
		</g>
		<g>
			<path class="st5" d="M131.6,238.6c0,0-5.8,3.4-11.7,2.1s-9.6-7.1-9.6-7.1s5.8-3.4,11.7-2.1S131.6,238.6,131.6,238.6z"/>
			<path class="st5" d="M146.9,219.9c0,0-6.6,1.4-10,6.4s-2.3,11.7-2.3,11.7s6.6-1.4,10-6.4C148,226.6,146.9,219.9,146.9,219.9z"/>
		</g>
		<g>
			<path class="st5" d="M124.1,223.7c0,0-5.3,3.1-10.7,1.9s-8.7-6.4-8.7-6.4s5.3-3.1,10.7-1.9C120.7,218.6,124.1,223.7,124.1,223.7z
				"/>
			<path class="st5" d="M137.9,206.8c0,0-6,1.3-9.1,5.8c-3.1,4.5-2.1,10.6-2.1,10.6s6-1.3,9.1-5.8
				C138.9,212.8,137.9,206.8,137.9,206.8z"/>
		</g>
		<g>
			<path class="st5" d="M115.6,206.2c0,0-5,2.9-10,1.8c-5-1.2-8.2-6-8.2-6s5-2.9,10-1.8S115.6,206.2,115.6,206.2z"/>
			<path class="st5" d="M128.6,190.2c0,0-5.7,1.2-8.6,5.5s-2,10-2,10s5.7-1.2,8.6-5.5C129.5,196,128.6,190.2,128.6,190.2z"/>
		</g>
		<g>
			<path class="st5" d="M109,194.6c0,0-5,2.9-10,1.8s-8.2-6-8.2-6s5-2.9,10-1.8S109,194.6,109,194.6z"/>
			<path class="st5" d="M122,178.6c0,0-5.7,1.2-8.6,5.5s-2,10-2,10s5.7-1.2,8.6-5.5S122,178.6,122,178.6z"/>
		</g>
		<g>
			<path class="st5" d="M99.9,182.7c0,0-5,2.9-10,1.8s-8.2-6-8.2-6s5-2.9,10-1.8S99.9,182.7,99.9,182.7z"/>
			<path class="st5" d="M112.9,166.8c0,0-5.7,1.2-8.6,5.5s-2,10-2,10s5.7-1.2,8.6-5.5S112.9,166.8,112.9,166.8z"/>
		</g>
		<g>
			<path class="st5" d="M92.5,171.7c0,0-3.9,2.3-7.9,1.4s-6.5-4.8-6.5-4.8s3.9-2.3,7.9-1.4C90,167.9,92.5,171.7,92.5,171.7z"/>
			<path class="st5" d="M102.8,159.2c0,0-4.5,1-6.8,4.3c-2.3,3.4-1.6,7.9-1.6,7.9s4.5-1,6.8-4.3S102.8,159.2,102.8,159.2z"/>
		</g>
	</g>
	<path class="st5" d="M299.7,277.7c0,0,14.7,12.6,31.4-4.1c0,0,12.1,104,25.1,107l-70.9,0.9C285.3,381.5,309.3,312.7,299.7,277.7z"
		/>
</g>
</svg>
