<?xml version="1.0" encoding="UTF-8" standalone="no"?><!DOCTYPE svg PUBLIC "-//W3C//DTD SVG 1.1//EN" "http://www.w3.org/Graphics/SVG/1.1/DTD/svg11.dtd"><svg width="100%" height="100%" viewBox="0 0 2667 2667" version="1.1" xmlns="http://www.w3.org/2000/svg" xmlns:xlink="http://www.w3.org/1999/xlink" xml:space="preserve" xmlns:serif="http://www.serif.com/" style="fill-rule:evenodd;clip-rule:evenodd;stroke-linejoin:round;stroke-miterlimit:2;"><g><path d="M784.589,1692.66c0,-0 1.04,76.961 51.481,116.482c0,0 -22.88,-138.323 111.283,-138.843c136.763,-0.52 -96.722,-49.921 -162.764,22.361Z" style="fill:#fdcd9a;fill-rule:nonzero;"/><path d="M1208.4,729.076c-0,-0 -39.521,197.604 -0,254.286c21.32,31.2 31.201,69.161 35.881,97.242c6.38,43.166 43.816,75.474 87.45,75.474c10.255,0 20.431,-1.783 30.072,-5.273c28.065,-10.348 49.043,-34.263 55.642,-63.441c11.96,-50.961 36.92,-146.643 65.521,-187.204c12.48,-17.161 17.16,-39.001 15.6,-59.802c-1.476,-31.216 -8.705,-61.891 -21.32,-90.482c-23.921,-42.641 -33.281,-30.68 -47.841,-89.442c-14.04,-58.241 -251.166,-1.56 -250.126,0c0,2.08 35.361,32.241 29.121,68.642Z" style="fill:#fccb98;fill-rule:nonzero;"/><path d="M1196.96,684.875c-10.401,-22.881 98.802,158.604 198.644,21.84c22.361,-30.68 28.081,-37.96 28.081,-61.361l-0,5.2l-226.725,34.321Z" style="fill:#e8b47f;fill-rule:nonzero;"/><path d="M1203.72,688.515c-45.241,-44.721 -83.202,-127.403 -53.561,-278.726l4.68,-17.161c10.4,-32.24 48.881,-135.203 128.963,-171.084c95.682,-42.641 168.483,152.364 177.324,204.885c6.76,40.041 16.64,177.844 -61.362,259.486c-25.74,27.384 -61.694,42.937 -99.275,42.937c-36.334,0 -71.195,-14.534 -96.769,-40.337Z" style="fill:#fdcd9a;fill-rule:nonzero;"/><path d="M1196.96,682.795c-0,-0 -139.364,-288.607 62.921,-409.769c20.8,-12.481 45.761,-17.681 70.202,-13.001c17.16,3.64 35.88,11.961 50.961,30.681l89.962,-84.762c-0,0 -122.203,-127.403 -296.407,-27.041c-102.962,59.282 -134.683,180.965 -123.763,320.328c5.845,65.292 18.57,129.784 37.961,192.404c36.006,-3.494 72.063,-6.443 108.163,-8.84Z" style="fill:#553b23;fill-rule:nonzero;"/><path d="M1389.36,293.306l86.842,-85.802c-0,0 64.481,18.201 74.362,147.683c14.56,187.205 -31.721,295.887 -31.721,295.887l-90.482,6.24c0.52,-1.04 105.042,-205.404 -39.001,-364.008Z" style="fill:#553b23;fill-rule:nonzero;"/><path d="M1208.4,729.076c-0,-0 -156.004,132.603 -286.527,208.005c-53.14,30.436 -90.258,82.785 -101.402,143.003c-14.472,93.56 -18.481,188.442 -11.96,282.886l-0,3.12c-6.1,71.84 -24.207,142.151 -53.561,208.005c-21.082,36.874 -22.642,81.881 -4.161,120.123c3.849,7.795 11.82,12.75 20.515,12.75c5.439,0 10.707,-1.939 14.846,-5.47c50.993,-43.161 119.847,-59.068 184.604,-42.641l5.201,0.52l845.019,-15.6l7.8,1.04c12.48,4.68 43.681,22.88 48.881,93.602c3.12,44.201 16.12,37.961 27.561,20.8c15.902,-23.832 22.048,-52.89 17.16,-81.122c-18.2,-116.482 -74.362,-489.331 -70.722,-612.053c4.16,-134.684 -154.443,-215.285 -167.443,-221.525l-1.56,-0.52c-13.521,-5.201 -206.445,-82.682 -232.446,-129.483c0,-0 69.682,121.682 -8.84,275.606c-67.081,131.043 33.281,496.611 65.002,602.693c0.577,2.029 0.868,4.129 0.868,6.241c-0,12.485 -10.223,22.787 -22.709,22.88l-248.269,0c-12.267,0 -22.361,-10.093 -22.361,-22.36c0,-1.93 0.25,-3.854 0.744,-5.721c22.36,-96.202 94.642,-408.209 9.36,-582.933c-9.396,-17.524 -16.895,-36 -22.36,-55.121c-14.628,-75.136 -12.319,-152.597 6.76,-226.725Z" style="fill:#f5f1e6;fill-rule:nonzero;"/><path d="M1320.2,2513.24c-454.49,87.882 -726.976,-342.167 -972.942,-555.892c-120.122,-104.003 -44.721,-416.01 217.885,-296.407c134.683,89.962 309.407,179.924 444.09,269.366l717.097,0c121.162,-89.442 237.645,-203.845 384.288,-237.125c196.565,-44.201 342.688,176.804 218.405,310.447c-160.683,172.644 -523.652,539.252 -1008.82,509.611Z" style="fill:#819c95;"/><path d="M1904.17,1862.7c-105.563,65.521 -156.004,162.243 -260.526,243.885c-120.986,87.97 -249.195,165.551 -383.249,231.925c-33.801,9.881 -79.562,49.921 -113.363,59.802c-4.16,52.001 3.121,53.561 -1.04,105.562c83.993,11.082 169.108,-10.525 237.646,-60.321c237.526,-102.25 473.299,-208.52 707.216,-318.767c75.922,-35.361 131.043,-113.363 84.762,-202.285c-55.642,-108.163 -186.165,-112.843 -271.446,-59.801Z" style="fill:#fccb98;"/><path d="M1142.36,2524.16c-109.722,0.52 -219.965,-3.121 -329.687,2.08c-101.402,4.68 -130.523,-267.286 48.881,-212.685c110.762,33.801 187.724,71.761 291.727,74.881c47.841,-2.08 73.841,140.924 -10.921,135.724Z" style="fill:#f5f1e6;"/><path d="M673.827,1784.7c87.882,63.441 174.724,154.443 269.886,236.605c138.323,119.083 281.846,232.965 398.849,300.567c36.271,24.638 80.18,35.522 123.763,30.681c2.08,-0 -17.161,-0 20.28,-1.56c24.441,-1.04 49.921,37.96 60.321,59.801c10.921,23.401 19.241,19.76 29.641,43.161c17.161,36.401 -74.362,53.041 -76.442,52.521c-45.241,-5.72 -102.962,-0.52 -140.403,-26.52c-8.32,-5.721 -24.96,-4.161 -33.281,-10.401c-11.18,-7.919 -23.005,-14.877 -35.36,-20.8c-275.087,-136.243 -508.052,-234.525 -813.299,-423.29c-35.881,-22.36 -88.402,-141.963 -11.96,-216.325c65.521,-62.921 145.603,-69.161 208.005,-24.44Z" style="fill:#fccb98;"/><path d="M1438.24,2356.71c76.442,-18.201 160.684,-0 232.445,-32.761c208.005,-95.162 311.487,219.965 53.041,198.124c-94.122,-7.8 -189.284,-9.88 -283.926,-15.08c-34.321,-52.001 -40.041,-102.442 -1.56,-150.283Z" style="fill:#f5f1e6;"/><path d="M843.522,2202.62c-13,2.08 -88.053,-491.24 -100.534,-552.43l1157.72,-2.943c0,0 -60.373,474.142 -68.465,533.532c-3.499,25.673 -985.079,21.321 -988.719,21.841Z" style="fill:url(#_Linear1);fill-rule:nonzero;stroke:#000;stroke-width:2.6px;"/><path d="M1254.16,1108.68c-0,-0 76.442,65.521 163.284,-21.321c-0,0 62.921,540.812 130.523,556.413l-368.689,4.68c0,-0 124.803,-357.768 74.882,-539.772Z" style="fill:#91b1a9;fill-rule:nonzero;"/></g><defs><linearGradient id="_Linear1" x1="0" y1="0" x2="1" y2="0" gradientUnits="userSpaceOnUse" gradientTransform="matrix(3.31152e-14,540.812,-540.812,3.31152e-14,1346.72,1643.78)"><stop offset="0" style="stop-color:#f2ebef;stop-opacity:1"/><stop offset="1" style="stop-color:#91b1a9;stop-opacity:1"/></linearGradient></defs></svg>