<?xml version="1.0" encoding="UTF-8" standalone="no"?><!DOCTYPE svg PUBLIC "-//W3C//DTD SVG 1.1//EN" "http://www.w3.org/Graphics/SVG/1.1/DTD/svg11.dtd"><svg width="100%" height="100%" viewBox="0 0 46305 46305" version="1.1" xmlns="http://www.w3.org/2000/svg" xmlns:xlink="http://www.w3.org/1999/xlink" xml:space="preserve" xmlns:serif="http://www.serif.com/" style="fill-rule:evenodd;clip-rule:evenodd;stroke-linejoin:round;stroke-miterlimit:2;"><g><path d="M13621.3,29386.5c0,0 18.055,1336.13 893.767,2022.26c0,-0 -397.221,-2401.44 1932,-2410.47c2374.36,-9.025 -1679.2,-866.684 -2825.76,388.212Z" style="fill:#fdcd9a;fill-rule:nonzero;"/><path d="M20979.2,12657.6c-0,0 -686.13,3430.62 -0,4414.71c370.137,541.666 541.683,1200.71 622.933,1688.23c110.767,749.408 760.696,1310.31 1518.23,1310.31c178.038,0 354.704,-30.958 522.084,-91.545c487.241,-179.655 851.441,-594.846 966.008,-1101.41c207.637,-884.737 640.971,-2545.88 1137.52,-3250.07c216.667,-297.938 297.917,-677.105 270.834,-1038.23c-25.625,-541.945 -151.129,-1074.5 -370.138,-1570.87c-415.296,-740.296 -577.796,-532.638 -830.575,-1552.81c-243.75,-1011.13 -4360.54,-27.083 -4342.46,0c0,36.113 613.904,559.742 505.571,1191.7l-0.004,-0.021Z" style="fill:#fccb98;fill-rule:nonzero;"/><path d="M20780.5,11890.2c-180.571,-397.241 1715.31,2753.54 3448.68,379.167c388.213,-532.637 487.517,-659.029 487.517,-1065.3l-0,90.279l-3936.2,595.85Z" style="fill:#e8b47f;fill-rule:nonzero;"/><path d="M20897.9,11953.4c-785.434,-776.408 -1444.48,-2211.86 -929.88,-4839l81.25,-297.933c180.559,-559.721 848.63,-2347.28 2238.94,-2970.21c1661.15,-740.295 2925.05,2645.21 3078.54,3557.03c117.362,695.158 288.887,3087.57 -1065.31,4504.96c-446.875,475.416 -1071.08,745.433 -1723.53,745.433c-630.795,0 -1236.03,-252.325 -1680.02,-700.296l-0,0.017Z" style="fill:#fdcd9a;fill-rule:nonzero;"/><path d="M20780.5,11854.1c-0,0 -2419.51,-5010.54 1092.38,-7114.04c361.112,-216.684 794.462,-306.963 1218.78,-225.713c297.921,63.196 622.921,207.658 884.742,532.658l1561.84,-1471.56c0,-0 -2121.58,-2211.86 -5145.96,-469.463c-1787.54,1029.2 -2338.25,3141.76 -2148.67,5561.25c101.479,1133.54 322.395,2253.2 659.045,3340.35c625.105,-60.663 1251.1,-111.859 1877.83,-153.475l0.004,-0.005Z" style="fill:#553b23;fill-rule:nonzero;"/><path d="M24120.8,5092.12l1507.67,-1489.62c0,0 1119.46,315.988 1291.01,2563.94c252.779,3250.09 -550.709,5136.92 -550.709,5136.92l-1570.87,108.333c9.03,-18.054 1823.65,-3566.04 -677.1,-6319.58l0,0.008Z" style="fill:#553b23;fill-rule:nonzero;"/><path d="M20979.2,12657.6c-0,0 -2708.41,2302.13 -4974.42,3611.2c-922.571,528.404 -1566.98,1437.24 -1760.45,2482.69c-251.25,1624.3 -320.85,3271.56 -207.638,4911.21l0,54.167c-105.904,1247.22 -420.262,2467.9 -929.879,3611.2c-366.008,640.175 -393.091,1421.55 -72.237,2085.47c66.821,135.33 205.208,221.355 356.162,221.355c94.425,-0 185.884,-33.667 257.742,-94.967c885.296,-749.325 2080.68,-1025.49 3204.93,-740.296l90.296,9.029l14670.5,-270.833l135.417,18.054c216.666,81.25 758.35,397.225 848.629,1625.04c54.167,767.375 279.858,659.041 478.488,361.108c276.075,-413.75 382.779,-918.229 297.916,-1408.37c-315.971,-2022.26 -1291.01,-8495.33 -1227.81,-10625.9c72.221,-2338.26 -2681.3,-3737.59 -2907,-3845.92l-27.083,-9.029c-234.742,-90.292 -3584.12,-1435.45 -4035.52,-2247.97c-0,-0 1209.76,2112.53 -153.471,4784.83c-1164.6,2275.05 577.792,8621.71 1128.5,10463.4c10.017,35.225 15.071,71.683 15.071,108.35c-0,216.754 -177.483,395.608 -394.254,397.225l-4310.21,-0c-212.97,-0 -388.212,-175.225 -388.212,-388.196c-0,-33.508 4.342,-66.908 12.917,-99.321c388.195,-1670.17 1643.09,-7086.96 162.5,-10120.4c-163.125,-304.237 -293.317,-625 -388.196,-956.962c-253.959,-1304.44 -213.871,-2649.25 117.362,-3936.2l-0.012,0.008Z" style="fill:#e3e4d5;fill-rule:nonzero;"/><path d="M22920.1,43632.5c-7890.46,1525.73 -12621.1,-5940.38 -16891.4,-9650.92c-2085.45,-1805.61 -776.404,-7222.42 3782.72,-5145.96c2338.25,1561.84 5371.67,3123.68 7709.92,4676.5l12449.6,0c2103.5,-1552.81 4125.78,-3538.97 6671.67,-4116.75c3412.58,-767.379 5949.46,3069.51 3791.75,5389.71c-2789.63,2997.29 -9091.17,9362 -17514.2,8847.42l-0.054,-0l-0.004,0.004Z" style="fill:#039158;"/><path d="M33058.5,32338.5c-1832.69,1137.52 -2708.4,2816.72 -4523.04,4234.12c-2100.45,1527.25 -4326.29,2874.15 -6653.62,4026.47c-586.825,171.546 -1381.28,866.683 -1968.11,1038.23c-72.221,902.796 54.183,929.879 -18.054,1832.67c1458.21,192.395 2935.9,-182.725 4125.8,-1047.24c4123.72,-1775.17 8217,-3620.14 12278,-5534.17c1318.09,-613.904 2275.05,-1968.11 1471.56,-3511.89c-966.009,-1877.83 -3232.03,-1959.08 -4712.62,-1038.21l0.054,0.009Z" style="fill:#fccb98;"/><path d="M19832.6,43822.1c-1904.9,9.029 -3818.84,-54.183 -5723.75,36.113c-1760.45,81.25 -2266.02,-4640.38 848.629,-3692.45c1922.95,586.825 3259.1,1245.85 5064.71,1300.02c830.57,-36.113 1281.96,2446.6 -189.605,2356.32l0.017,0Z" style="fill:#e3e4d5;"/><path d="M11698.4,30984.4c1525.73,1101.41 3033.4,2681.3 4685.54,4107.73c2401.44,2067.41 4893.17,4044.53 6924.46,5218.17c629.704,427.741 1392.02,616.7 2148.66,532.654c36.112,-0 -297.934,-0 352.083,-27.084c424.325,-18.054 866.687,659.03 1047.24,1038.21c189.6,406.267 334.045,343.054 514.6,749.325c297.933,631.958 -1291.01,920.85 -1327.12,911.821c-785.433,-99.304 -1787.54,-9.029 -2437.55,-460.417c-144.442,-99.321 -433.334,-72.237 -577.796,-180.571c-194.096,-137.483 -399.392,-258.283 -613.888,-361.112c-4775.83,-2365.33 -8820.33,-4071.62 -14119.8,-7348.79c-622.934,-388.196 -1534.75,-2464.64 -207.638,-3755.65c1137.52,-1092.38 2527.83,-1200.71 3611.2,-424.304l0,0.021Z" style="fill:#fccb98;"/><path d="M24969.5,40915.1c1327.12,-315.987 2789.65,0 4035.5,-568.766c3611.2,-1652.12 5407.75,3818.84 920.855,3439.65c-1634.06,-135.421 -3286.18,-171.529 -4929.29,-261.808c-595.85,-902.796 -695.158,-1778.51 -27.083,-2609.08l0.02,0Z" style="fill:#e3e4d5;"/><path d="M14644.5,38239.9c-225.696,36.112 -1528.7,-8528.46 -1745.38,-9590.79l20099.3,-51.096c0,0 -1048.14,8231.62 -1188.63,9262.71c-60.746,445.712 -17102.1,370.158 -17165.2,379.183l-0.033,-0l0.004,-0.004Z" style="fill:url(#_Linear1);fill-rule:nonzero;stroke:#000;stroke-width:45.13px;"/><path d="M21773.6,19247.9c0,-0 1327.12,1137.52 2834.79,-370.155c-0,0 1092.38,9389.08 2266.02,9659.96l-6400.83,81.25c0,-0 2166.72,-6211.25 1300.04,-9371.04l-0.017,-0.012Z" style="fill:#039158;fill-rule:nonzero;"/></g><defs><linearGradient id="_Linear1" x1="0" y1="0" x2="1" y2="0" gradientUnits="userSpaceOnUse" gradientTransform="matrix(5.74916e-13,9389.08,-9389.08,5.74916e-13,23380.5,28537.8)"><stop offset="0" style="stop-color:#f2ebef;stop-opacity:1"/><stop offset="1" style="stop-color:#91b1a9;stop-opacity:1"/></linearGradient></defs></svg>