<svg xmlns="http://www.w3.org/2000/svg" xmlns:xlink="http://www.w3.org/1999/xlink" width="100%" height="100%" version="1.1" viewBox="0 0 640 640" xml:space="preserve" style="fill-rule:evenodd;clip-rule:evenodd;stroke-linejoin:round;stroke-miterlimit:2"><path d="M48.4,287C113.6,21 503.1,-35.7 504.4,95.8C505.6,222.5 592.1,227.3 603.1,326.2C616.4,445.7 498.7,560.7 362.1,581.9C113.7,620.3 20.5,400.8 48.4,287Z" style="fill:url(#_Linear1)"/><path d="M209.4,390C209.4,390 209.6,404.8 219.3,412.4C219.3,412.4 214.9,385.8 240.7,385.7C267,385.6 222.1,376.1 209.4,390Z" style="fill:#fdcd9a;fill-rule:nonzero"/><path d="M290.9,204.7C290.9,204.7 283.3,242.7 290.9,253.6C295,259.6 296.9,266.9 297.8,272.3C299.027,280.601 306.226,286.814 314.617,286.814C316.589,286.814 318.546,286.471 320.4,285.8C325.797,283.81 329.831,279.211 331.1,273.6C333.4,263.8 338.2,245.4 343.7,237.6C346.1,234.3 347,230.1 346.7,226.1C346.416,220.097 345.026,214.198 342.6,208.7C338,200.5 336.2,202.8 333.4,191.5C330.7,180.3 285.1,191.2 285.3,191.5C285.3,191.9 292.1,197.7 290.9,204.7Z" style="fill:#fccb98;fill-rule:nonzero"/><path d="M288.7,196.2C286.7,191.8 307.7,226.7 326.9,200.4C331.2,194.5 332.3,193.1 332.3,188.6L332.3,189.6L288.7,196.2Z" style="fill:#e8b47f;fill-rule:nonzero"/><path d="M290,196.9C281.3,188.3 274,172.4 279.7,143.3L280.6,140C282.6,133.8 290,114 305.4,107.1C323.8,98.9 337.8,136.4 339.5,146.5C340.8,154.2 342.7,180.7 327.7,196.4C322.75,201.666 315.836,204.657 308.609,204.657C301.622,204.657 294.918,201.862 290,196.9Z" style="fill:#fdcd9a;fill-rule:nonzero"/><path d="M288.7,195.8C288.7,195.8 261.9,140.3 300.8,117C304.8,114.6 309.6,113.6 314.3,114.5C317.6,115.2 321.2,116.8 324.1,120.4L341.4,104.1C341.4,104.1 317.9,79.6 284.4,98.9C264.6,110.3 258.5,133.7 260.6,160.5C261.724,173.056 264.171,185.458 267.9,197.5C274.824,196.828 281.758,196.261 288.7,195.8Z" style="fill:#553b23;fill-rule:nonzero"/><path d="M325.7,120.9L342.4,104.4C342.4,104.4 354.8,107.9 356.7,132.8C359.5,168.8 350.6,189.7 350.6,189.7L333.2,190.9C333.3,190.7 353.4,151.4 325.7,120.9Z" style="fill:#553b23;fill-rule:nonzero"/><g opacity=".7"><path d="M389.3,389.6C389.066,369.385 389.633,349.17 391,329C392.252,308.833 394.253,288.719 397,268.7L399.2,253.7C400.1,248.7 400.9,243.7 401.9,238.8C402.8,233.8 403.9,228.9 404.9,224C406.1,219.1 407.1,214.2 408.5,209.3C411,199.5 413.9,189.8 417.3,180.3C420.7,170.8 424.6,161.5 429.3,152.5C424.7,161.5 420.9,170.8 417.6,180.4C414.2,189.9 411.5,199.6 409,209.4C407.7,214.3 406.7,219.2 405.6,224.1C403.607,233.964 401.806,243.866 400.2,253.8L398.1,268.8C394.183,298.785 391.946,328.965 391.4,359.2C391.2,369.3 391.1,379.4 391.3,389.4L389.3,389.6Z" style="fill:#7da295;fill-rule:nonzero"/><path d="M392,371.8C392,371.8 401,374.7 408.6,371C416.2,367.3 419.5,358.5 419.5,358.5C419.5,358.5 410.5,355.6 402.9,359.3C397.961,362.117 394.118,366.524 392,371.8Z" style="fill:#7da295;fill-rule:nonzero"/><path d="M365.6,351.1C365.6,351.1 375,351 381.2,356.7C387.4,362.4 387.9,371.9 387.9,371.9C387.9,371.9 378.5,372 372.3,366.3C366.1,360.6 365.6,351.1 365.6,351.1Z" style="fill:#7da295;fill-rule:nonzero"/><path d="M392.7,351.1C392.7,351.1 401.7,354 409.3,350.3C416.9,346.6 420.2,337.8 420.2,337.8C420.2,337.8 411.2,334.9 403.6,338.6C398.641,341.392 394.791,345.807 392.7,351.1Z" style="fill:#7da295;fill-rule:nonzero"/><path d="M366.3,330.4C366.3,330.4 375.7,330.3 381.9,336C388.1,341.7 388.6,351.2 388.6,351.2C388.6,351.2 379.2,351.3 373,345.6C369.1,341.446 366.735,336.081 366.3,330.4Z" style="fill:#7da295;fill-rule:nonzero"/><path d="M393.4,330.3C393.4,330.3 402.4,333.2 410,329.5C417.6,325.8 420.9,317 420.9,317C420.9,317 411.9,314.1 404.3,317.8C399.341,320.592 395.491,325.007 393.4,330.3Z" style="fill:#7da295;fill-rule:nonzero"/><path d="M367,309.6C367,309.6 376.4,309.5 382.6,315.2C388.8,320.9 389.3,330.4 389.3,330.4C389.3,330.4 379.9,330.5 373.7,324.8C367.6,319 367,309.6 367,309.6Z" style="fill:#7da295;fill-rule:nonzero"/><path d="M395.3,308.5C395.3,308.5 403.7,311.2 410.8,307.8C417.9,304.4 421,296.1 421,296.1C421,296.1 412.6,293.4 405.5,296.8C400.837,299.386 397.227,303.528 395.3,308.5Z" style="fill:#7da295;fill-rule:nonzero"/><path d="M370.6,289.2C370.6,289.2 379.4,289.1 385.2,294.5C391,299.9 391.5,308.7 391.5,308.7C391.5,308.7 382.7,308.8 376.9,303.4C371.1,298 370.6,289.2 370.6,289.2Z" style="fill:#7da295;fill-rule:nonzero"/><path d="M397.1,286.3C397.1,286.3 404.6,288.7 410.9,285.6C417.2,282.5 420,275.1 420,275.1C420,275.1 412.5,272.7 406.2,275.8C399.9,278.9 397.1,286.3 397.1,286.3Z" style="fill:#7da295;fill-rule:nonzero"/><path d="M375.1,269C375.1,269 383,268.9 388.1,273.7C393.2,278.5 393.7,286.4 393.7,286.4C393.7,286.4 385.8,286.5 380.7,281.7C375.5,276.9 375.1,269 375.1,269Z" style="fill:#7da295;fill-rule:nonzero"/><path d="M400,263.7C400,263.7 406.5,265.8 411.9,263.1C417.3,260.5 419.7,254.1 419.7,254.1C419.7,254.1 413.2,252 407.8,254.7C402.4,257.4 400,263.7 400,263.7Z" style="fill:#7da295;fill-rule:nonzero"/><path d="M381,248.8C381,248.8 387.8,248.7 392.2,252.8C396.6,256.9 397,263.7 397,263.7C397,263.7 390.2,263.8 385.8,259.7C381.4,255.6 381,248.8 381,248.8Z" style="fill:#7da295;fill-rule:nonzero"/><path d="M402.5,244.8C402.5,244.8 408.4,246.7 413.3,244.3C418.2,241.9 420.4,236.1 420.4,236.1C420.4,236.1 414.5,234.2 409.6,236.6C404.6,239.1 402.5,244.8 402.5,244.8Z" style="fill:#7da295;fill-rule:nonzero"/><path d="M385.2,231.3C385.2,231.3 391.4,231.2 395.4,235C399.4,238.8 399.8,244.9 399.8,244.9C399.8,244.9 393.6,245 389.6,241.2C385.6,237.5 385.2,231.3 385.2,231.3Z" style="fill:#7da295;fill-rule:nonzero"/><g><path d="M406.7,227.1C406.7,227.1 413.2,229.2 418.6,226.5C424,223.9 426.4,217.5 426.4,217.5C426.4,217.5 419.9,215.4 414.5,218.1C409,220.7 406.7,227.1 406.7,227.1Z" style="fill:#7da295;fill-rule:nonzero"/><path d="M387.7,212.3C387.7,212.3 394.5,212.2 398.9,216.3C403.3,220.4 403.7,227.2 403.7,227.2C403.7,227.2 396.9,227.3 392.5,223.2C388.1,219.1 387.7,212.3 387.7,212.3Z" style="fill:#7da295;fill-rule:nonzero"/></g><g><path d="M410.8,211C410.8,211 416.7,212.9 421.6,210.5C426.5,208.1 428.7,202.3 428.7,202.3C428.7,202.3 422.8,200.4 417.9,202.8C412.9,205.2 410.8,211 410.8,211Z" style="fill:#7da295;fill-rule:nonzero"/><path d="M393.6,197.5C393.6,197.5 399.8,197.4 403.8,201.2C407.8,204.9 408.2,211.1 408.2,211.1C408.2,211.1 402,211.2 398,207.4C394,203.6 393.6,197.5 393.6,197.5Z" style="fill:#7da295;fill-rule:nonzero"/></g><g><path d="M415.2,192C415.2,192 420.7,193.8 425.4,191.5C430.1,189.2 432.1,183.8 432.1,183.8C432.1,183.8 426.6,182 421.9,184.3C417.2,186.6 415.2,192 415.2,192Z" style="fill:#7da295;fill-rule:nonzero"/><path d="M399,179.3C399,179.3 404.8,179.2 408.6,182.7C412.4,186.2 412.7,192 412.7,192C412.7,192 406.9,192.1 403.1,188.6C399.3,185.1 399,179.3 399,179.3Z" style="fill:#7da295;fill-rule:nonzero"/></g><g><path d="M419,179.2C419,179.2 424.5,181 429.2,178.7C433.8,176.4 435.9,171 435.9,171C435.9,171 430.4,169.2 425.7,171.5C421,173.8 419,179.2 419,179.2Z" style="fill:#7da295;fill-rule:nonzero"/><path d="M402.8,166.5C402.8,166.5 408.6,166.4 412.4,169.9C416.2,173.4 416.5,179.2 416.5,179.2C416.5,179.2 410.7,179.3 406.9,175.8C403.2,172.3 402.8,166.5 402.8,166.5Z" style="fill:#7da295;fill-rule:nonzero"/></g><g><path d="M425.3,165.6C425.3,165.6 430.8,167.4 435.5,165.1C440.1,162.8 442.2,157.4 442.2,157.4C442.2,157.4 436.7,155.6 432,157.9C428.957,159.63 426.593,162.347 425.3,165.6Z" style="fill:#7da295;fill-rule:nonzero"/><path d="M409.1,152.9C409.1,152.9 414.9,152.8 418.7,156.3C422.5,159.8 422.8,165.6 422.8,165.6C422.8,165.6 417,165.7 413.2,162.2C409.4,158.7 409.1,152.9 409.1,152.9Z" style="fill:#7da295;fill-rule:nonzero"/></g><g><path d="M430.1,153.3C430.1,153.3 434.5,154.7 438.1,152.9C441.8,151.1 443.4,146.8 443.4,146.8C443.4,146.8 439,145.4 435.4,147.2C431.8,149 430.1,153.3 430.1,153.3Z" style="fill:#7da295;fill-rule:nonzero"/><path d="M417.3,143.3C417.3,143.3 421.9,143.2 424.9,146C427.9,148.8 428.2,153.3 428.2,153.3C428.2,153.3 423.6,153.4 420.6,150.6C417.6,147.8 417.3,143.3 417.3,143.3Z" style="fill:#7da295;fill-rule:nonzero"/></g></g><path d="M290.9,204.7C290.9,204.7 260.9,230.2 235.8,244.7C225.581,250.553 218.443,260.62 216.3,272.2C213.517,290.192 212.746,308.438 214,326.6L214,327.2C212.827,341.015 209.345,354.536 203.7,367.2C199.646,374.291 199.346,382.946 202.9,390.3C203.64,391.799 205.173,392.752 206.845,392.752C207.891,392.752 208.904,392.379 209.7,391.7C219.506,383.4 232.747,380.341 245.2,383.5L246.2,383.6L408.7,380.6L410.2,380.8C412.6,381.7 418.6,385.2 419.6,398.8C420.2,407.3 422.7,406.1 424.9,402.8C427.958,398.217 429.14,392.629 428.2,387.2C424.7,364.8 413.9,293.1 414.6,269.5C415.4,243.6 384.9,228.1 382.4,226.9L382.1,226.8C379.5,225.8 342.4,210.9 337.4,201.9C337.4,201.9 350.8,225.3 335.7,254.9C322.8,280.1 342.1,350.4 348.2,370.8C348.311,371.19 348.367,371.594 348.367,372C348.367,374.401 346.401,376.382 344,376.4L296.257,376.4C293.898,376.4 291.957,374.459 291.957,372.1C291.957,371.729 292.005,371.359 292.1,371C296.4,352.5 310.3,292.5 293.9,258.9C292.093,255.53 290.651,251.977 289.6,248.3C286.787,233.851 287.231,218.955 290.9,204.7Z" style="fill:#f5f1e6;fill-rule:nonzero"/><path d="M312.4,547.8C225,564.7 172.6,482 125.3,440.9C102.2,420.9 116.7,360.9 167.2,383.9C193.1,401.2 226.7,418.5 252.6,435.7L390.5,435.7C413.8,418.5 436.2,396.5 464.4,390.1C502.2,381.6 530.3,424.1 506.4,449.8C475.5,483 405.7,553.5 312.4,547.8Z" style="fill:#819c95"/><path d="M424.7,422.7C404.4,435.3 394.7,453.9 374.6,469.6C351.334,486.517 326.679,501.436 300.9,514.2C294.4,516.1 285.6,523.8 279.1,525.7C278.3,535.7 279.7,536 278.9,546C295.052,548.131 311.42,543.976 324.6,534.4C370.277,514.737 415.617,494.301 460.6,473.1C475.2,466.3 485.8,451.3 476.9,434.2C466.2,413.4 441.1,412.5 424.7,422.7Z" style="fill:#fccb98"/><path d="M278.2,549.9C257.1,550 235.9,549.3 214.8,550.3C195.3,551.2 189.7,498.9 224.2,509.4C245.5,515.9 260.3,523.2 280.3,523.8C289.5,523.4 294.5,550.9 278.2,549.9Z" style="fill:#f5f1e6"/><path d="M188.1,407.7C205,419.9 221.7,437.4 240,453.2C266.6,476.1 294.2,498 316.7,511C323.675,515.738 332.119,517.831 340.5,516.9C340.9,516.9 337.2,516.9 344.4,516.6C349.1,516.4 354,523.9 356,528.1C358.1,532.6 359.7,531.9 361.7,536.4C365,543.4 347.4,546.6 347,546.5C338.3,545.4 327.2,546.4 320,541.4C318.4,540.3 315.2,540.6 313.6,539.4C311.45,537.877 309.176,536.539 306.8,535.4C253.9,509.2 209.1,490.3 150.4,454C143.5,449.7 133.4,426.7 148.1,412.4C160.7,400.3 176.1,399.1 188.1,407.7Z" style="fill:#fccb98"/><path d="M335.1,517.7C349.8,514.2 366,517.7 379.8,511.4C419.8,493.1 439.7,553.7 390,549.5C371.9,548 353.6,547.6 335.4,546.6C328.8,536.6 327.7,526.9 335.1,517.7Z" style="fill:#f5f1e6"/><path d="M220.733,488.067C218.233,488.467 203.8,393.6 201.4,381.833L424.033,381.267C424.033,381.267 412.423,472.446 410.867,483.867C410.194,488.804 221.433,487.967 220.733,488.067Z" style="fill:url(#_Linear2);fill-rule:nonzero;stroke:#000;stroke-width:.5px"/><g opacity=".68"><path d="M443.6,397.2C447.8,377.438 452.804,357.855 458.6,338.5C464.3,319.1 470.6,299.9 477.7,281L483.2,266.9C486.895,257.49 490.931,248.217 495.3,239.1L502,225.5C506.55,216.484 511.556,207.706 517,199.2C522.4,190.7 528.3,182.5 534.8,174.8C528.4,182.6 522.6,190.8 517.2,199.4C511.858,207.965 506.92,216.774 502.4,225.8C500.1,230.3 498,234.9 495.8,239.4C493.7,244 491.6,248.6 489.7,253.2L483.9,267.2L478.5,281.3C468.006,309.657 459.191,338.607 452.1,368C449.7,377.8 447.4,387.6 445.4,397.5L443.6,397.2Z" style="fill:#819d92;fill-rule:nonzero"/><path d="M450.1,380.5C450.1,380.5 458.2,385.3 466.4,383.4C474.6,381.5 479.8,373.6 479.8,373.6C479.8,373.6 471.7,368.8 463.5,370.7C455.2,372.6 450.1,380.5 450.1,380.5Z" style="fill:#819d92;fill-rule:nonzero"/><path d="M428.9,354.5C428.9,354.5 438.1,356.5 442.9,363.4C447.6,370.4 446.1,379.7 446.1,379.7C446.1,379.7 436.9,377.7 432.1,370.8C427.3,363.8 428.9,354.5 428.9,354.5Z" style="fill:#819d92;fill-rule:nonzero"/><path d="M455.4,360.4C455.4,360.4 463.5,365.2 471.7,363.3C479.9,361.4 485.1,353.5 485.1,353.5C485.1,353.5 477,348.7 468.8,350.6C460.5,352.5 455.4,360.4 455.4,360.4Z" style="fill:#819d92;fill-rule:nonzero"/><path d="M434.2,334.4C434.2,334.4 443.4,336.4 448.2,343.3C452.9,350.3 451.4,359.6 451.4,359.6C451.4,359.6 442.2,357.6 437.4,350.7C432.6,343.7 434.2,334.4 434.2,334.4Z" style="fill:#819d92;fill-rule:nonzero"/><path d="M460.7,340.3C460.7,340.3 468.8,345.1 477,343.2C485.2,341.3 490.4,333.4 490.4,333.4C490.4,333.4 482.3,328.6 474.1,330.5C468.638,332.122 463.902,335.586 460.7,340.3Z" style="fill:#819d92;fill-rule:nonzero"/><path d="M439.5,314.3C439.5,314.3 448.7,316.3 453.5,323.2C458.2,330.2 456.7,339.5 456.7,339.5C456.7,339.5 447.5,337.5 442.7,330.6C437.9,323.6 439.5,314.3 439.5,314.3Z" style="fill:#819d92;fill-rule:nonzero"/><path d="M467.3,319.4C467.3,319.4 474.9,323.9 482.6,322.1C490.3,320.3 495.1,312.9 495.1,312.9C495.1,312.9 487.5,308.4 479.8,310.2C472.1,312 467.3,319.4 467.3,319.4Z" style="fill:#819d92;fill-rule:nonzero"/><path d="M447.4,295.1C447.4,295.1 456,296.9 460.5,303.4C464.9,309.9 463.5,318.6 463.5,318.6C463.5,318.6 454.9,316.8 450.4,310.3C446,303.8 447.4,295.1 447.4,295.1Z" style="fill:#819d92;fill-rule:nonzero"/><path d="M474,298.2C474,298.2 480.8,302.2 487.6,300.6C494.4,299 498.7,292.4 498.7,292.4C498.7,292.4 491.9,288.4 485.1,290C478.3,291.6 474,298.2 474,298.2Z" style="fill:#819d92;fill-rule:nonzero"/><path d="M456.3,276.5C456.3,276.5 464,278.1 468,283.9C472,289.7 470.7,297.5 470.7,297.5C470.7,297.5 463,295.9 459,290.1C455,284.3 456.3,276.5 456.3,276.5Z" style="fill:#819d92;fill-rule:nonzero"/><path d="M481.8,276.8C481.8,276.8 487.6,280.2 493.5,278.9C499.4,277.5 503.1,271.8 503.1,271.8C503.1,271.8 497.3,268.4 491.4,269.7C485.5,271 481.8,276.8 481.8,276.8Z" style="fill:#819d92;fill-rule:nonzero"/><path d="M466.5,258.1C466.5,258.1 473.1,259.5 476.5,264.5C479.9,269.5 478.8,276.2 478.8,276.2C478.8,276.2 472.2,274.8 468.8,269.8C465.4,264.8 466.5,258.1 466.5,258.1Z" style="fill:#819d92;fill-rule:nonzero"/><path d="M488.3,258.9C488.3,258.9 493.6,262 499,260.8C504.4,259.5 507.7,254.4 507.7,254.4C507.7,254.4 502.4,251.3 497,252.5C491.7,253.8 488.3,258.9 488.3,258.9Z" style="fill:#819d92;fill-rule:nonzero"/><path d="M474.5,242C474.5,242 480.5,243.3 483.6,247.8C486.7,252.3 485.7,258.4 485.7,258.4C485.7,258.4 479.7,257.1 476.6,252.6C473.5,248.1 474.5,242 474.5,242Z" style="fill:#819d92;fill-rule:nonzero"/><g><path d="M496.4,242.6C496.4,242.6 502.2,246 508.1,244.7C514,243.3 517.7,237.6 517.7,237.6C517.7,237.6 511.9,234.2 506,235.5C500.1,236.8 496.4,242.6 496.4,242.6Z" style="fill:#819d92;fill-rule:nonzero"/><path d="M481.1,223.9C481.1,223.9 487.7,225.3 491.1,230.3C494.5,235.3 493.4,242 493.4,242C493.4,242 486.8,240.6 483.4,235.6C480,230.6 481.1,223.9 481.1,223.9Z" style="fill:#819d92;fill-rule:nonzero"/></g><g><path d="M503.9,227.7C503.9,227.7 509.2,230.8 514.6,229.6C520,228.3 523.3,223.2 523.3,223.2C523.3,223.2 518,220.1 512.6,221.3C507.2,222.5 503.9,227.7 503.9,227.7Z" style="fill:#819d92;fill-rule:nonzero"/><path d="M490.1,210.8C490.1,210.8 496.1,212.1 499.2,216.6C502.3,221.1 501.3,227.2 501.3,227.2C501.3,227.2 495.3,225.9 492.2,221.4C489.1,216.9 490.1,210.8 490.1,210.8Z" style="fill:#819d92;fill-rule:nonzero"/></g><g><path d="M512.4,210.2C512.4,210.2 517.4,213.1 522.4,212C527.4,210.8 530.6,206 530.6,206C530.6,206 525.6,203.1 520.6,204.2C515.6,205.3 512.4,210.2 512.4,210.2Z" style="fill:#819d92;fill-rule:nonzero"/><path d="M499.4,194.2C499.4,194.2 505.1,195.4 508,199.7C510.9,204 510,209.7 510,209.7C510,209.7 504.3,208.5 501.4,204.2C498.5,200 499.4,194.2 499.4,194.2Z" style="fill:#819d92;fill-rule:nonzero"/></g><g><path d="M519,198.6C519,198.6 524,201.5 529,200.4C534,199.2 537.2,194.4 537.2,194.4C537.2,194.4 532.2,191.5 527.2,192.6C522.1,193.7 519,198.6 519,198.6Z" style="fill:#819d92;fill-rule:nonzero"/><path d="M506,182.6C506,182.6 511.7,183.8 514.6,188.1C517.5,192.4 516.6,198.1 516.6,198.1C516.6,198.1 510.9,196.9 508,192.6C505,188.4 506,182.6 506,182.6Z" style="fill:#819d92;fill-rule:nonzero"/></g><g><path d="M528.1,186.7C528.1,186.7 533.1,189.6 538.1,188.5C543.1,187.4 546.3,182.5 546.3,182.5C546.3,182.5 541.3,179.6 536.3,180.7C531.3,181.8 528.1,186.7 528.1,186.7Z" style="fill:#819d92;fill-rule:nonzero"/><path d="M515.1,170.8C515.1,170.8 520.8,172 523.7,176.3C526.6,180.6 525.7,186.3 525.7,186.3C525.7,186.3 520,185.1 517.1,180.8C514.1,176.5 515.1,170.8 515.1,170.8Z" style="fill:#819d92;fill-rule:nonzero"/></g><g><path d="M535.5,175.8C535.5,175.8 539.4,178.1 543.4,177.2C547.4,176.3 549.9,172.4 549.9,172.4C549.9,172.4 546,170.1 542,171C538,171.9 535.5,175.8 535.5,175.8Z" style="fill:#819d92;fill-rule:nonzero"/><path d="M525.2,163.2C525.2,163.2 529.7,164.2 532,167.5C534.3,170.9 533.6,175.4 533.6,175.4C533.6,175.4 529.1,174.4 526.8,171.1C524.5,167.7 525.2,163.2 525.2,163.2Z" style="fill:#819d92;fill-rule:nonzero"/></g></g><g opacity=".68"><path d="M182.5,393.6C178.468,373.844 173.631,354.261 168,334.9C162.555,315.497 156.35,296.316 149.4,277.4L144,263.3C142.1,258.6 140.3,253.9 138.2,249.3C136.3,244.6 134.2,240.1 132.1,235.5C129.9,230.9 127.8,226.4 125.5,221.9C116.463,203.842 105.607,186.754 93.1,170.9C99.6,178.6 105.5,186.8 110.9,195.3C116.344,203.806 121.35,212.584 125.9,221.6C128.3,226.1 130.4,230.6 132.6,235.2C134.7,239.8 136.9,244.4 138.8,249C140.9,253.6 142.7,258.3 144.7,263L150.2,277.1C160.922,305.445 169.971,334.395 177.3,363.8C179.8,373.6 182.2,383.4 184.3,393.3L182.5,393.6Z" style="fill:#718c95;fill-rule:nonzero"/><path d="M177.9,376.5C177.9,376.5 169.8,381.3 161.6,379.4C153.4,377.5 148.2,369.6 148.2,369.6C148.2,369.6 156.3,364.8 164.5,366.7C172.7,368.6 177.9,376.5 177.9,376.5Z" style="fill:#718c95;fill-rule:nonzero"/><path d="M199.1,350.5C199.1,350.5 189.9,352.5 185.1,359.4C180.4,366.4 181.9,375.7 181.9,375.7C181.9,375.7 191.1,373.7 195.9,366.8C200.7,359.8 199.1,350.5 199.1,350.5Z" style="fill:#718c95;fill-rule:nonzero"/><path d="M172.6,356.4C172.6,356.4 164.5,361.2 156.3,359.3C148.1,357.4 142.9,349.5 142.9,349.5C142.9,349.5 151,344.7 159.2,346.6C167.4,348.5 172.6,356.4 172.6,356.4Z" style="fill:#718c95;fill-rule:nonzero"/><path d="M193.8,330.4C193.8,330.4 184.6,332.4 179.8,339.3C175,346.2 176.6,355.6 176.6,355.6C176.6,355.6 185.8,353.6 190.6,346.7C195.4,339.8 193.8,330.4 193.8,330.4Z" style="fill:#718c95;fill-rule:nonzero"/><path d="M167.3,336.3C167.3,336.3 159.2,341.1 151,339.2C142.8,337.3 137.6,329.4 137.6,329.4C137.6,329.4 145.7,324.6 153.9,326.5C162.1,328.4 167.3,336.3 167.3,336.3Z" style="fill:#718c95;fill-rule:nonzero"/><path d="M188.5,310.3C188.5,310.3 179.3,312.3 174.5,319.2C169.8,326.2 171.3,335.5 171.3,335.5C171.3,335.5 180.5,333.5 185.3,326.6C190,319.6 188.5,310.3 188.5,310.3Z" style="fill:#718c95;fill-rule:nonzero"/><path d="M160.7,315.4C160.7,315.4 153.1,319.9 145.4,318.1C137.7,316.3 132.9,308.9 132.9,308.9C132.9,308.9 140.5,304.4 148.2,306.2C155.9,308 160.7,315.4 160.7,315.4Z" style="fill:#718c95;fill-rule:nonzero"/><path d="M180.6,291.1C180.6,291.1 172,292.9 167.5,299.4C163.1,305.9 164.5,314.6 164.5,314.6C164.5,314.6 173.1,312.8 177.6,306.3C182,299.8 180.6,291.1 180.6,291.1Z" style="fill:#718c95;fill-rule:nonzero"/><path d="M154,294.2C154,294.2 147.2,298.2 140.4,296.6C133.6,295 129.3,288.4 129.3,288.4C129.3,288.4 136.1,284.4 142.9,286C149.7,287.6 154,294.2 154,294.2Z" style="fill:#718c95;fill-rule:nonzero"/><path d="M171.7,272.5C171.7,272.5 164,274.1 160,279.9C156,285.7 157.3,293.5 157.3,293.5C157.3,293.5 165,291.9 169,286.1C173,280.3 171.7,272.5 171.7,272.5Z" style="fill:#718c95;fill-rule:nonzero"/><path d="M146.2,272.8C146.2,272.8 140.4,276.2 134.5,274.9C128.6,273.6 124.9,267.8 124.9,267.8C124.9,267.8 130.7,264.4 136.6,265.7C142.5,267 146.2,272.8 146.2,272.8Z" style="fill:#718c95;fill-rule:nonzero"/><path d="M161.5,254.1C161.5,254.1 154.9,255.5 151.5,260.5C148.1,265.5 149.2,272.2 149.2,272.2C149.2,272.2 155.8,270.8 159.2,265.8C162.6,260.8 161.5,254.1 161.5,254.1Z" style="fill:#718c95;fill-rule:nonzero"/><path d="M139.7,254.9C139.7,254.9 134.4,258 129,256.8C123.6,255.6 120.3,250.4 120.3,250.4C120.3,250.4 125.6,247.3 131,248.5C136.4,249.7 139.7,254.9 139.7,254.9Z" style="fill:#718c95;fill-rule:nonzero"/><path d="M153.5,238C153.5,238 147.5,239.3 144.4,243.8C141.3,248.3 142.3,254.4 142.3,254.4C142.3,254.4 148.3,253.1 151.4,248.6C154.5,244 153.5,238 153.5,238Z" style="fill:#718c95;fill-rule:nonzero"/><g><path d="M131.6,238.6C131.6,238.6 125.8,242 119.9,240.7C114,239.4 110.3,233.6 110.3,233.6C110.3,233.6 116.1,230.2 122,231.5C127.9,232.8 131.6,238.6 131.6,238.6Z" style="fill:#718c95;fill-rule:nonzero"/><path d="M146.9,219.9C146.9,219.9 140.3,221.3 136.9,226.3C133.5,231.3 134.6,238 134.6,238C134.6,238 141.2,236.6 144.6,231.6C148,226.6 146.9,219.9 146.9,219.9Z" style="fill:#718c95;fill-rule:nonzero"/></g><g><path d="M124.1,223.7C124.1,223.7 118.8,226.8 113.4,225.6C108,224.4 104.7,219.2 104.7,219.2C104.7,219.2 110,216.1 115.4,217.3C120.7,218.6 124.1,223.7 124.1,223.7Z" style="fill:#718c95;fill-rule:nonzero"/><path d="M137.9,206.8C137.9,206.8 131.9,208.1 128.8,212.6C125.7,217.1 126.7,223.2 126.7,223.2C126.7,223.2 132.7,221.9 135.8,217.4C138.9,212.8 137.9,206.8 137.9,206.8Z" style="fill:#718c95;fill-rule:nonzero"/></g><g><path d="M115.6,206.2C115.6,206.2 110.6,209.1 105.6,208C100.6,206.8 97.4,202 97.4,202C97.4,202 102.4,199.1 107.4,200.2C112.4,201.3 115.6,206.2 115.6,206.2Z" style="fill:#718c95;fill-rule:nonzero"/><path d="M128.6,190.2C128.6,190.2 122.9,191.4 120,195.7C117.1,200 118,205.7 118,205.7C118,205.7 123.7,204.5 126.6,200.2C129.5,196 128.6,190.2 128.6,190.2Z" style="fill:#718c95;fill-rule:nonzero"/></g><g><path d="M109,194.6C109,194.6 104,197.5 99,196.4C94,195.3 90.8,190.4 90.8,190.4C90.8,190.4 95.8,187.5 100.8,188.6C105.8,189.7 109,194.6 109,194.6Z" style="fill:#718c95;fill-rule:nonzero"/><path d="M122,178.6C122,178.6 116.3,179.8 113.4,184.1C110.5,188.4 111.4,194.1 111.4,194.1C111.4,194.1 117.1,192.9 120,188.6C122.9,184.3 122,178.6 122,178.6Z" style="fill:#718c95;fill-rule:nonzero"/></g><g><path d="M99.9,182.7C99.9,182.7 94.9,185.6 89.9,184.5C84.9,183.4 81.7,178.5 81.7,178.5C81.7,178.5 86.7,175.6 91.7,176.7C96.7,177.8 99.9,182.7 99.9,182.7Z" style="fill:#718c95;fill-rule:nonzero"/><path d="M112.9,166.8C112.9,166.8 107.2,168 104.3,172.3C101.4,176.6 102.3,182.3 102.3,182.3C102.3,182.3 108,181.1 110.9,176.8C113.8,172.5 112.9,166.8 112.9,166.8Z" style="fill:#718c95;fill-rule:nonzero"/></g><g><path d="M92.5,171.7C92.5,171.7 88.6,174 84.6,173.1C80.6,172.2 78.1,168.3 78.1,168.3C78.1,168.3 82,166 86,166.9C90,167.9 92.5,171.7 92.5,171.7Z" style="fill:#718c95;fill-rule:nonzero"/><path d="M102.8,159.2C102.8,159.2 98.3,160.2 96,163.5C93.7,166.9 94.4,171.4 94.4,171.4C94.4,171.4 98.9,170.4 101.2,167.1C103.5,163.8 102.8,159.2 102.8,159.2Z" style="fill:#718c95;fill-rule:nonzero"/></g></g><path d="M299.7,277.7C299.7,277.7 314.4,290.3 331.1,273.6C331.1,273.6 343.2,377.6 356.2,380.6L285.3,381.5C285.3,381.5 309.3,312.7 299.7,277.7Z" style="fill:#91b1a9;fill-rule:nonzero"/><defs><linearGradient id="_Linear1" x1="0" x2="1" y1="0" y2="0" gradientTransform="matrix(529.7,-183.4,183.4,529.7,76.7,402.6)" gradientUnits="userSpaceOnUse"><stop offset="0" style="stop-color:#91b1a9;stop-opacity:1"/><stop offset="1" style="stop-color:#f5f1e6;stop-opacity:1"/></linearGradient><linearGradient id="_Linear2" x1="0" x2="1" y1="0" y2="0" gradientTransform="matrix(6.36816e-15,104,-104,6.36816e-15,317.5,380.6)" gradientUnits="userSpaceOnUse"><stop offset="0" style="stop-color:#f2ebef;stop-opacity:1"/><stop offset="1" style="stop-color:#91b1a9;stop-opacity:1"/></linearGradient></defs></svg>