<?xml version="1.0" standalone="no"?>
<!DOCTYPE svg PUBLIC "-//W3C//DTD SVG 20010904//EN"
 "http://www.w3.org/TR/2001/REC-SVG-20010904/DTD/svg10.dtd">
<svg version="1.0" xmlns="http://www.w3.org/2000/svg"
 width="700.000000pt" height="700.000000pt" viewBox="0 0 700.000000 700.000000"
 preserveAspectRatio="xMidYMid meet">
<metadata>
Created by potrace 1.14, written by Peter Selinger 2001-2017
</metadata>
<g transform="translate(0.000000,700.000000) scale(0.100000,-0.100000)"
fill="#000000" stroke="none">
<path d="M4207 6694 c-1 -1 -51 -4 -112 -8 -60 -3 -119 -8 -131 -10 -11 -2
-45 -7 -75 -10 -48 -5 -169 -26 -239 -40 -14 -3 -50 -11 -80 -17 -190 -37
-573 -158 -745 -235 -191 -84 -245 -109 -335 -156 -138 -72 -213 -115 -371
-213 -288 -178 -664 -505 -879 -764 -25 -30 -52 -62 -60 -71 -8 -9 -35 -44
-60 -78 -25 -33 -51 -63 -58 -66 -7 -3 -11 -2 -7 3 9 16 -51 41 -66 27 -9 -8
-10 -8 -5 2 4 6 2 12 -3 12 -6 0 -11 -6 -11 -12 0 -10 -3 -9 -9 1 -7 11 -13
11 -32 1 -33 -18 -33 -17 -16 -35 18 -18 31 -20 21 -3 -4 7 -3 8 4 4 7 -4 12
-13 12 -20 0 -8 11 -16 25 -18 25 -5 36 7 13 14 -8 3 -6 7 5 11 9 3 16 3 16
-1 -4 -23 3 -34 17 -28 14 5 13 2 -3 -23 -10 -16 -44 -71 -77 -122 -151 -240
-260 -471 -349 -744 -38 -117 -73 -247 -83 -311 -3 -21 -7 -41 -9 -44 -2 -3
-6 -33 -10 -65 -4 -33 -8 -71 -11 -85 -6 -34 -6 -322 0 -385 68 -697 368
-1350 836 -1815 220 -218 397 -347 693 -504 156 -82 437 -181 643 -226 132
-28 302 -53 449 -65 69 -5 421 -6 480 -1 22 2 76 7 120 10 44 4 91 9 105 11
14 2 45 7 70 10 76 8 124 15 140 20 8 2 31 7 50 10 193 30 512 130 750 235
136 60 318 154 372 191 14 11 29 19 32 19 15 0 272 181 378 267 124 99 320
288 403 387 28 32 55 64 60 70 72 77 230 320 304 466 161 317 234 608 235 935
1 435 -113 745 -423 1143 -246 317 -294 380 -321 423 -30 45 -37 64 -22 56 4
-2 16 5 26 16 19 20 19 20 -2 15 -12 -4 -25 -2 -28 3 -3 5 -13 9 -22 9 -18 0
-62 73 -62 103 0 12 -4 16 -12 11 -9 -5 -9 -2 1 9 8 11 9 17 3 17 -6 0 -9 7
-6 15 4 8 -1 17 -10 21 -9 3 -16 11 -16 16 0 5 -9 17 -19 26 -23 20 -73 154
-105 284 -43 166 -53 252 -71 570 -7 119 -30 204 -78 290 -132 236 -441 389
-877 434 -61 6 -347 13 -353 8z m-3262 -1644 c-3 -5 -12 -10 -18 -10 -7 0 -6
4 3 10 19 12 23 12 15 0z m85 -15 c0 -1 -12 -2 -26 -2 -17 0 -22 2 -13 7 10 7
39 3 39 -5z m-62 -20 c-3 -3 -9 2 -12 12 -6 14 -5 15 5 6 7 -7 10 -15 7 -18z
m77 -5 c3 -5 1 -10 -4 -10 -6 0 -11 5 -11 10 0 6 2 10 4 10 3 0 8 -4 11 -10z"/>
<path d="M1081 5233 c-5 -10 -13 -18 -18 -17 -4 1 -13 -12 -20 -27 -7 -17 -8
-29 -3 -29 6 0 10 -5 10 -11 0 -5 -4 -7 -10 -4 -5 3 -10 1 -10 -5 0 -15 40 -3
64 20 10 10 19 30 19 44 0 14 4 26 9 26 5 0 6 5 3 10 -10 16 -33 12 -44 -7z
m-9 -50 c-10 -4 -10 -8 0 -21 12 -15 11 -16 -4 -3 -19 14 -15 32 5 30 8 0 8
-2 -1 -6z"/>
<path d="M5745 5189 c4 -12 8 -28 9 -37 3 -15 43 -62 55 -62 18 1 30 18 24 38
-3 12 -10 19 -16 15 -6 -4 -8 0 -4 10 4 11 -3 23 -20 37 -35 27 -56 27 -48 -1z
m55 -18 c0 -4 -6 -15 -13 -26 -11 -14 -16 -15 -22 -5 -5 9 -4 11 3 6 7 -4 12
-5 12 -2 0 2 3 12 7 22 5 13 3 15 -7 9 -9 -5 -11 -4 -6 4 7 11 26 6 26 -8z
m27 -56 c4 -4 3 -5 -4 -2 -6 4 -13 2 -15 -5 -3 -8 -6 -6 -10 4 -7 17 15 19 29
3z"/>
<path d="M895 5162 c-10 -9 -15 -11 -11 -4 8 14 -10 17 -19 3 -9 -16 46 -51
82 -51 19 0 32 4 28 9 -3 5 0 13 6 17 7 4 9 3 5 -4 -3 -6 -2 -13 3 -16 15 -10
22 11 8 23 -8 6 -29 17 -49 25 -31 14 -37 13 -53 -2z m47 -16 c7 4 8 2 4 -5
-9 -13 -26 -5 -25 12 0 9 2 8 6 -1 2 -6 10 -9 15 -6z m-32 -6 c0 -5 -5 -10
-11 -10 -5 0 -7 5 -4 10 3 6 8 10 11 10 2 0 4 -4 4 -10z"/>
<path d="M5896 5111 c-33 -18 -50 -49 -22 -38 9 4 16 3 16 -1 0 -12 39 -12 68
0 l27 11 -25 8 c-22 8 -21 8 7 4 22 -3 33 0 37 11 5 12 1 14 -15 9 -15 -5 -19
-4 -15 4 5 7 -1 11 -14 11 -12 0 -18 -4 -15 -10 3 -5 2 -10 -4 -10 -5 0 -11 4
-13 9 -1 4 -16 1 -32 -8z m4 -15 c0 -2 -7 -7 -16 -10 -8 -3 -12 -2 -9 4 6 10
25 14 25 6z m27 -11 c0 -8 -4 -12 -9 -9 -5 3 -6 10 -3 15 9 13 12 11 12 -6z"/>
<path d="M5854 5015 c-56 -26 -58 -30 -31 -59 14 -15 28 -23 31 -17 4 6 13 8
20 5 19 -7 73 22 86 46 6 11 7 21 3 21 -4 1 -18 3 -30 4 -12 1 -27 5 -35 8 -8
2 -27 -1 -44 -8z m80 -35 c4 0 5 4 1 9 -3 5 -1 12 4 15 5 4 8 -2 7 -11 -4 -26
-23 -27 -36 -1 -10 21 -10 21 3 6 8 -10 17 -18 21 -18z m-84 0 c0 -5 -4 -10
-10 -10 -5 0 -10 5 -10 10 0 6 5 10 10 10 6 0 10 -4 10 -10z m49 -20 c-6 -5
-18 -6 -26 -3 -19 8 -16 11 13 11 17 0 22 -3 13 -8z"/>
<path d="M5794 4955 c11 -8 22 -12 25 -9 6 6 -19 24 -34 24 -5 -1 -1 -7 9 -15z"/>
</g>
</svg>
